<?xml version="1.0" standalone="no"?>
<!DOCTYPE svg PUBLIC "-//W3C//DTD SVG 1.1//EN" "http://www.w3.org/Graphics/SVG/1.1/DTD/svg11.dtd" >
<svg xmlns="http://www.w3.org/2000/svg">
<metadata></metadata>
<defs>
<font id="typography_timesregular" horiz-adv-x="1128" >
<font-face units-per-em="2048" ascent="1638" descent="-410" />
<missing-glyph horiz-adv-x="620" />
<glyph horiz-adv-x="0" />
<glyph unicode="&#xd;" horiz-adv-x="0" />
<glyph unicode=" "  horiz-adv-x="620" />
<glyph unicode="&#x09;" horiz-adv-x="620" />
<glyph unicode="&#xa0;" horiz-adv-x="620" />
<glyph unicode="!" horiz-adv-x="579" d="M135 1296q0 98 39.5 152.5t118.5 54.5q151 0 151 -215q-6 -94 -20.5 -173t-47 -239t-48.5 -280t-16 -248q0 -30 -23 -36q-21 10 -21 44q0 147 -18 282.5t-43 248.5t-48.5 228t-23.5 181zM160 92q0 58 36 99t93 41q62 0 98.5 -38t36.5 -90q0 -56 -35 -98.5t-100 -42.5 q-54 0 -89.5 38.5t-39.5 90.5z" />
<glyph unicode="&#x22;" horiz-adv-x="944" d="M140 1396q0 47 33 77t71 30q46 0 77 -32q31 -33 31 -87l-80 -476h-49zM592 1392q0 52 30 81.5t74 29.5q48 0 78.5 -33.5t30.5 -89.5l-84 -472h-49z" />
<glyph unicode="#" horiz-adv-x="1237" d="M47 496l17 96h272l49 340h-273l17 96h271l65 467h131l-64 -467h273l63 467h132l-68 -467h260l-16 -96h-260l-48 -340h277l-17 -96h-276l-64 -484h-128l65 484h-277l-80 -484h-128l80 484h-273zM465 592h275l48 340h-272z" />
<glyph unicode="$" horiz-adv-x="1237" d="M51 332q35 223 193 223q60 0 96.5 -41.5t36.5 -128.5v-45l159 344q-94 36 -162 69.5t-123 79t-87.5 108.5t-32.5 143q4 144 78.5 237t188 133.5t235.5 40.5q170 0 260 -51l103 232q18 32 52 32q64 0 64 -16q0 -2 -2 -6t-2 -6l-131 -271q151 -137 151 -273q0 -81 -52 -137 q-54 -56 -120 -59q-112 6 -112 188l-117 -256q144 -59 225.5 -99t133.5 -83.5t76 -102.5t24 -149q0 -11 -1 -24.5t-1 -22.5q-14 -156 -106 -252.5t-220 -136t-266 -39.5q-87 0 -161.5 16.5t-102.5 36.5l-96 -204q-16 -34 -52 -35h-28q-28 0 -36 14q16 29 24 49l96 203 q-176 112 -185 289zM184 264q8 -100 80 -143q23 22 42 70q18 47 18 93q0 70 -44 76q-90 0 -96 -96zM312 1204q3 -102 109.5 -189t215.5 -112l235 489q-27 19 -92.5 35.5t-142.5 16.5q-124 0 -220.5 -62.5t-104.5 -177.5zM360 68q26 -20 93 -36t147 -20q96 2 182 40.5 t140.5 110t54.5 169.5q0 117 -101 199t-252 121zM884 1172q0 -62 52 -68q38 20 51 34t13 54q0 43 -13 86.5t-31 65.5q-64 -76 -72 -172z" />
<glyph unicode="%" horiz-adv-x="1511" d="M41 1104q8 150 83.5 254t199.5 110q90 0 155 -51t99 -135.5t38 -181.5q0 -110 -31 -199.5t-94.5 -143t-154.5 -53.5q-134 0 -214.5 115t-80.5 285zM188 1096q0 -102 9 -175t42 -121t97 -48q82 0 108.5 97t26.5 259q0 143 -28.5 224.5t-114.5 87.5q-80 0 -108 -86 t-32 -238zM320 12q5 16 12 29l733 1364q22 42 35.5 52.5t48.5 10.5q43 0 43 -20q0 -6 -8 -28l-748 -1383q-12 -22 -24 -28t-56 -9q-30 0 -36 12zM897 377q1 98 37 184.5t103 138.5t155 52q80 -2 144 -54t100 -136t36 -175q0 -167 -68 -285t-208 -118q-98 0 -165.5 55 t-100.5 145.5t-33 192.5zM1040 368q0 -140 35 -235t105 -100q64 0 97 47.5t43.5 122.5t10.5 178q1 323 -151 323q-77 0 -106 -92q-30 -94 -34 -244z" />
<glyph unicode="&#x26;" horiz-adv-x="1741" d="M98 403q3 139 99.5 251t254.5 165q-174 168 -180 340q2 100 60 179.5t150 124.5t186 45q124 0 216.5 -39t141.5 -103t49 -142q0 -108 -99.5 -204t-299.5 -148l473 -524q71 128 71 205q0 147 -239 147q-103 24 -111 50q98 -16 822 2q-8 -10 -102 -37q-92 0 -149 -34 t-95 -83.5t-95 -167t-63 -127.5q77 -93 124.5 -140t123.5 -80.5t186 -33.5q26 -11 44 -9q34 -2 76 -32q-664 -8 -499 -8q-47 0 -90 29.5t-109 105.5q-247 -172 -489 -172q-106 0 -197 35.5t-138 99.5t-83.5 143t-38.5 162zM299 452q6 -106 48.5 -201.5t122.5 -155t190 -62.5 q172 6 340 143l-535 608q-55 -35 -91 -86.5t-54 -113.5t-21 -132zM484 1252q3 -77 45.5 -166.5t126.5 -177.5q128 50 192 134t64 178q0 96 -61 162t-159 66q-92 0 -149 -52t-59 -144z" />
<glyph unicode="'" horiz-adv-x="620" d="M172 1356q4 62 44 104.5t120 42.5q66 -8 113 -74.5t47 -148.5q0 -72 -32.5 -155.5t-91 -147t-128.5 -78.5q-10 7 -21 25q3 17 57 59q92 89 120 213v20q0 30 -36 31q-6 0 -15 -2t-13 -2q-24 -8 -54 -8q-50 0 -78 35.5t-32 85.5z" />
<glyph unicode="(" horiz-adv-x="801" d="M96 643q2 190 73 363.5t206 301t317 181.5q48 10 64 10q76 23 28 -10q0 -9 -5 -14t-23 -12.5t-31 -14.5q-126 -60 -208.5 -186t-121.5 -288t-39 -333q2 -178 41 -340.5t112.5 -283.5t174.5 -177q44 -20 60 -29t57 -39v-10q1 -4 -61 15q-24 1 -88 27q-184 87 -308 220 t-184 292q-62 159 -64 327z" />
<glyph unicode=")" horiz-adv-x="801" d="M-22 -228q4 -2 34 14t54 32q24 15 30 18q104 56 183 170t122 274t43 348q-4 286 -83 508t-265 312q-24 10 -35 14.5t-34 20t-23 23.5q0 14 56 -7q20 0 69 -14q162 -67 289 -191.5t202 -278.5q74 -155 84 -307q2 -22 2 -65q0 -137 -34.5 -264t-105 -238t-181 -200.5 t-256.5 -145.5q-66 -23 -88 -23h-63z" />
<glyph unicode="*" horiz-adv-x="1237" d="M219 1184q0 42 29.5 75t75.5 33q50 0 100 -36q2 -1 46 -38.5t73 -57.5t45 -20q4 4 4 15q0 18 -27 76.5t-39 89.5t-14 75q0 49 30 78t74 29q48 0 79.5 -30.5t31.5 -88.5q0 -42 -41.5 -127.5t-42.5 -103.5q2 -2 4 -7q3 -6 5 -6q8 -4 12 -4q17 0 67.5 46t79.5 68.5t78 37.5 q19 6 33 6q44 0 71 -34t27 -80q0 -49 -24 -70.5t-65 -27.5t-79 -11q-54 0 -102 8.5t-54 8.5q-16 0 -16 -13q0 -15 19 -29t71 -46t86 -60q34 -30 47 -64q5 -8 5 -36q0 -40 -38 -75t-82 -38q-51 7 -71 49q-26 43 -39.5 85t-23.5 92t-14 64.5t-16 14.5q-16 0 -24 -24t-26 -96 q-20 -72 -38 -116q-22 -54 -88 -61q-40 0 -76.5 32.5t-39.5 76.5q6 44 49 88q23 20 79 55.5t79.5 53t23.5 34.5q-6 13 -43 13q-14 0 -180 -13q-60 12 -87 32.5t-34 76.5z" />
<glyph unicode="+" horiz-adv-x="1292" d="M84 559v149h488v548h149v-548h491v-149h-491v-559h-149v559h-488z" />
<glyph unicode="," horiz-adv-x="620" d="M189 120q8 50 48.5 85t69.5 27q72 -8 115.5 -67.5t48.5 -121.5q0 -113 -46.5 -212t-112.5 -159q-46 -36 -89 -36q-12 0 -18 16q14 29 43 51q63 55 90 107.5t43 117.5v25q0 25 -37 31q-50 -16 -46 -9q-108 -1 -109 145z" />
<glyph unicode="-" horiz-adv-x="692" d="M24 415l164 185h488l-168 -188z" />
<glyph unicode="." horiz-adv-x="620" d="M194 98q0 53 34 89t79 41q60 0 90.5 -37.5t30.5 -87.5q0 -52 -38 -95q-36 -42 -74 -45q-63 0 -92 41q-30 40 -30 94z" />
<glyph unicode="/" horiz-adv-x="1020" d="M-2 -226q67 88 78.5 103t11.5 19l692 1564q9 22 15 34.5t17.5 21t35.5 8.5l157 9q0 -11 -57 -105l-684 -1544q-37 -81 -50 -96.5t-42 -15.5h-96q28 -10 -78 2z" />
<glyph unicode="0" horiz-adv-x="1299" d="M40 739q4 13 4 25q4 182 77 351t202.5 274t354.5 93q138 -4 244 -64t177.5 -162.5t109 -234t40.5 -278.5q0 -204 -67.5 -389.5t-194.5 -298.5t-293 -113q-186 0 -352 117t-233 297t-69 383zM300 760q0 -208 27 -376t97 -272q72 -104 258 -116q316 0 315 755 q-15 676 -319 676q-314 -11 -378 -667z" />
<glyph unicode="1" horiz-adv-x="1237" d="M121 -2q10 4 47 35q17 0 43 12.5t45 10.5q52 8 100 12q164 30 164 212v840q0 59 -22 91t-98 32h-204q-68 1 -75 25q7 28 63 28q131 9 276 52q146 42 208 92q56 46 76 45q16 0 16 -37v-1159q0 -227 225 -227q31 -12 47 -10q102 -33 102 -52q-64 2 -1013 -2z" />
<glyph unicode="2" horiz-adv-x="1237" d="M72 1084q2 105 61 200.5t187 157t321 61.5q128 -4 238 -57.5t178.5 -141t78.5 -188.5q0 -164 -88 -263t-292 -173q-9 -4 -163.5 -57t-239 -99.5t-141 -125t-56.5 -193.5q60 135 194 38q70 0 136 -21t158 -61t153 -60.5t129 -25.5q70 12 114 49q46 36 56 200 q0 60 -34 107.5t-94 47.5q2 1 -75 -3q-20 13 -72.5 44.5t115.5 15.5q103 0 163 -78t60 -186q0 -88 -41 -158t-113.5 -108.5t-160.5 -38.5q-138 0 -312 80q-232 105 -309 105q-34 0 -59.5 -24t-34.5 -56q1 -15 33 -33.5t38 -38.5q0 -37 -32 -37q-41 0 -60 34.5t-24 85.5 t-8 85q2 114 52 204t127 153.5t155 106.5q78 44 218 112q104 49 160 147.5t56 212.5q0 137 -80 232.5t-219 99.5q-102 0 -181 -43t-122 -109q-44 -65 -46 -129q6 -11 9.5 -27.5t12.5 -25.5q8 -8 30 -14q45 0 45 52q-1 26 -13 56q74 -26 113 -79t39 -117t-41 -106.5 t-119 -45.5q-12 4 -40 4q-71 12 -113.5 76t-46.5 156zM849 504h1h-1z" />
<glyph unicode="3" horiz-adv-x="1237" d="M47 332q8 87 61.5 130.5t133.5 43.5q54 -36 89 -66t53 -76q35 -70 42 -114q-27 92 -119 106q-32 0 -56 -36t-28 -84q27 -104 112 -160t201 -60q73 8 101 17q133 40 208 138.5t75 252.5q-4 115 -62 186t-145 100.5t-185 29.5q-104 0 -102 -34q-24 0 -32 23q6 28 44 33 q158 28 221 93t111.5 143.5t48.5 160.5q0 73 -32.5 135t-91.5 101t-136 45q-72 0 -139.5 -32.5t-110.5 -81t-45 -89.5q-48 -133 8 -151q44 -29 100 -42q0 -54 -21 -85t-91 -31q-72 6 -112 53t-44 119q2 68 36 139t100.5 131.5t164 96.5t219.5 36q124 0 226 -38.5t162 -105.5 t68 -147q0 -108 -76 -199t-240 -145q142 0 239 -58t143 -150.5t46 -194.5q0 -122 -57 -216.5t-151 -156t-206.5 -93.5t-228.5 -36q-128 0 -243.5 51.5t-186 137.5t-72.5 180z" />
<glyph unicode="4" horiz-adv-x="1237" d="M-8 444q0 12 28 48q60 78 125 154.5t119 188.5t112 278q58 165 86 297q0 36 22 298q26 -95 62 -212q0 -123 -26 -247.5t-81.5 -239.5t-131 -224t-159.5 -205q66 12 145 12q158 0 340 -43v359q-6 28 -6.5 140t-0.5 131q4 15 34 25q58 52 104 130t100 263q0 -472 8 -1077 q64 0 92 -4q136 4 216 33q58 6 67 10q0 -50 -38.5 -108t-84.5 -66q-59 -11 -137 -17q-93 8 -115 9v-101q0 -122 58 -176q56 -53 172 -53q56 -31 58 -45q-586 1 -844 -2q17 22 81 47q102 0 169 37.5t67 155.5v156q-248 56 -453 56q-71 2 -163 -5q-16 -1 -25 -3z" />
<glyph unicode="5" horiz-adv-x="1237" d="M37 328q4 86 53.5 143t132.5 57q50 -32 94 -81.5t73 -102.5q80 -94 102 -128l-89 44q-11 18 -87 80q-29 0 -55.5 -36t-28.5 -81q36 -103 124 -155t207 -52q104 2 194.5 53t144.5 140t54 199q0 41 -4 63q-18 138 -140 209q-124 72 -288 72q-162 0 -284 -64 q-42 -26 -68 -32q-10 0 -16 32q4 12 4 33q28 273 28 475q0 190 -20 284q10 -10 64 -16h692q92 0 160 7l-60 -158q-12 -36 -17 -46.5t-26 -17t-65 -6.5h-668q0 -198 -16 -315q156 64 355 33q103 0 199 -21.5t178 -65t138 -96.5q56 -54 78 -145q16 -80 16 -129 q0 -138 -70 -261t-214 -200.5t-349 -79.5q-146 0 -266.5 52.5t-188.5 136.5q-68 86 -71 176z" />
<glyph unicode="6" horiz-adv-x="1237" d="M35 666q0 39 2 59q9 197 96 377t241 290.5t351 110.5q116 0 207.5 -40t141.5 -99.5t50 -116.5q0 -43 -32.5 -65.5t-42.5 -11.5q-18 88 -112.5 178t-208.5 70q-148 0 -251.5 -107t-143.5 -275.5t-40 -314.5q41 76 88 129.5t128 88t199 34.5q113 -2 203.5 -40.5t154 -103.5 t98 -145t40.5 -164q0 -110 -42.5 -211t-121 -179t-185.5 -122.5t-231 -44.5h-4q-183 6 -316 107t-201 260q-68 160 -68 336zM316 465q4 -186 87 -315.5t238 -129.5q98 2 165.5 68t100.5 174t33 238q0 82 -22 156t-64.5 132t-102.5 91t-135 33q-142 -16 -221 -143t-79 -304z " />
<glyph unicode="7" horiz-adv-x="1237" d="M37 1096q4 8 4 20l164 373q14 46 65.5 8.5t125.5 -29.5h736q-10 -5 68 0q-23 -44 -133 -220t-195.5 -348t-146.5 -379t-65 -421q49 -94 39.5 -98.5t-115.5 -1.5h-282q31 158 113.5 340t172.5 331t189 284t223 288h-596q-112 0 -178 -20.5t-101 -90.5q-32 -59 -74 -65 q-7 1 -14 29z" />
<glyph unicode="8" horiz-adv-x="1237" d="M24 385q2 63 31 124t79.5 109.5t120 81t149.5 40.5q-164 52 -230 146t-66 230q5 76 46.5 145t115 123t173 84.5t213.5 30.5q80 0 165 -22.5t156 -66.5t115 -111t44 -154q0 -101 -83.5 -186.5t-247.5 -139.5q220 -38 315.5 -143.5t95.5 -243.5q0 -95 -41 -180.5t-121 -151 t-192 -102.5t-250 -37q-7 0 -21.5 1t-22.5 1q-188 12 -311 72.5t-178 152t-55 197.5zM174 388q2 -97 44.5 -183.5t153.5 -137.5t224 -51q102 0 193 40t167 116t76 180q0 180 -260 252l-324 113q-102 -30 -186 -121.5t-88 -207.5zM261 1143q7 -33 13 -63q30 -84 158 -130.5 t324 -101.5q209 78 258 289q0 86 -40 156t-135 112.5t-183 42.5q-82 0 -158.5 -34.5t-155 -111t-81.5 -159.5z" />
<glyph unicode="9" horiz-adv-x="1237" d="M39 962q0 26 2 42q8 94 49.5 184t116.5 161t177 112.5t224 41.5q129 0 233.5 -48.5t179 -132.5t120 -194t59.5 -231q6 -61 6 -111q0 -153 -43.5 -297.5t-129 -262.5t-209 -188t-279.5 -75q-162 0 -282 54q-121 54 -147 188q0 42 -2 82t45 40q42 -52 127.5 -144.5 t120.5 -120.5t105 -38q33 -4 45 -4q127 0 215 107t132 279t44 366v37q-53 -168 -154.5 -232.5t-213.5 -64.5q-178 2 -300 64t-181.5 163t-59.5 223zM254 1016q0 -118 33 -218t123 -164t190 -66l6 3l2 1h-16q162 3 249 136.5t126 341.5q-6 100 -41 191t-120 139.5t-177 56.5 q-104 0 -177.5 -55.5t-133.5 -154.5t-64 -211z" />
<glyph unicode=":" horiz-adv-x="620" d="M200 94q0 55 35 97.5t77 40.5q72 0 94 -37t22 -91t-36 -94t-76 -47q-62 0 -89 42.5t-27 88.5zM204 690q0 55 33 91t75 34q68 0 90 -30.5t26 -80.5q0 -58 -34 -102t-70 -49q0 1 -2 1l-2 1q-64 0 -90 40.5t-26 94.5z" />
<glyph unicode=";" horiz-adv-x="620" d="M174 109q10 52 47 85.5t86 37.5q76 -6 113.5 -71t37.5 -157q0 -94 -51 -187.5t-110 -152.5q-40 -28 -74 -28q-6 0 -9.5 3t-5.5 8t-3 9q4 18 43 47q58 52 91.5 117t41.5 112v25q-1 21 -25 27q-64 -20 -88 -21q-50 0 -72 40.5t-22 105.5zM198 668q0 55 34.5 94t74.5 43 q65 0 91 -41.5t26 -97.5q-3 -53 -39.5 -89.5t-77.5 -36.5q-57 0 -83 38t-26 90z" />
<glyph unicode="&#x3c;" horiz-adv-x="1292" d="M80 553v159q674 340 948 480q188 96 190 142l-2 -210l-1001 -491l1001 -498l-12 -183q-112 88 -223 144q-901 458 -901 457z" />
<glyph unicode="=" horiz-adv-x="1292" d="M84 372v144h1128v-144h-1128zM84 748v149h1128v-149h-1128z" />
<glyph unicode="&#x3e;" horiz-adv-x="1292" d="M77 -71l3 206l1004 493l-1004 492l4 202q122 -102 232 -158l900 -456v-159q-572 -290 -856 -435q-280 -142 -283 -185z" />
<glyph unicode="?" horiz-adv-x="1237" d="M88 1071q2 106 61.5 205t183 163t304.5 64q120 0 239 -44.5t196 -132.5t77 -210q0 -94 -47.5 -185t-137.5 -139q-72 -41 -173 -78t-132 -50.5t-57 -51.5t-26 -108l-10 -169q10 -38 -17 -46q-29 7 -16 47l-13 204q0 63 36 110.5t113 112.5t120.5 111t62.5 109 q24 79 24 149q0 145 -89 228.5t-234 83.5q-94 -2 -172.5 -42.5t-125 -114t-46.5 -171.5q2 -34 22.5 -53t44.5 -23q20 0 60 26q39 28 35 90q35 -14 58 -154q0 -56 -40.5 -105.5t-95.5 -52.5q-91 0 -146.5 64.5t-58.5 162.5zM440 100q0 53 38.5 92.5t80.5 39.5q58 0 85.5 -38 t29.5 -90q0 -56 -33 -99t-73 -42q-66 0 -97 42.5t-31 94.5z" />
<glyph unicode="@" horiz-adv-x="1679" d="M60 776q4 138 63 267t165 232t255 164t325 64q232 0 406 -89t264 -236q90 -148 90 -314q0 -112 -41 -217t-115 -188.5t-174 -132t-214 -50.5q-133 0 -181 115q-120 -109 -270 -115q-76 0 -137 36.5t-97.5 106t-38.5 165.5q7 109 45 215t105.5 193.5t161.5 139.5t208 52 q155 0 228 -117l32 88h187l-247 -663q-12 -36 -19 -84q-1 -66 75 -72q114 20 206 88t147 171t67 220q2 14 2 45q0 145 -80 276.5t-233 213.5t-356 82q-142 0 -268.5 -51t-224.5 -144t-153 -217t-55 -264q0 -178 80 -342t230.5 -267t349.5 -110q143 0 272.5 38.5t238.5 120.5 t185 204h76q-34 -68 -94 -142t-151.5 -140t-220.5 -108q-130 -43 -288 -43h-42q-178 8 -322 76.5t-242 181t-149 255t-51 296.5zM540 500q8 -160 116 -160q60 0 135 43t125 176l155 432q-4 46 -43.5 86.5t-87.5 46.5q-96 0 -178 -88t-142 -227q-72 -153 -80 -309z" />
<glyph unicode="A" horiz-adv-x="1460" d="M-113 0q-3 3 -3 7q0 11 28 22q36 15 89 34t105 50t81 98t81 176l332 885q-2 -7 61 118q65 118 105 184q49 -123 50 -123l-1 5l405 -1128q48 -129 91 -187.5t80 -78.5t106 -20q66 -26 72 -44q-176 3 -382 3t-441 -3q5 22 67 44q24 0 111.5 29t87.5 97q0 48 -25 121 l-90 260h-506l-59 -164q-36 -97 -43 -185q3 -83 40 -116.5t127 -45.5q40 -22 48 -36q-97 -2 -617 -2zM408 600h468l-235 637z" />
<glyph unicode="B" horiz-adv-x="1493" d="M-12 2q2 18 66 40q96 0 143 24t73.5 94t26.5 221v768q0 160 -57.5 211t-155.5 51l-37 12q-49 26 -49 50q0 15 8 15q9 0 27 -20h851q240 0 354.5 -79.5t133.5 -233.5v-51q0 -265 -376 -299q130 -2 233 -52.5t163 -128t68 -159.5q0 -82 -27 -163t-87 -149.5t-157 -110.5 t-229 -42zM528 244q0 -84 46.5 -127t103 -52t123.5 -9q204 0 295.5 102t91.5 286q0 328 -352 328h-308v-528zM528 824h328q138 0 207 81t69 223v68q-24 219 -323 219q-127 0 -204 -41q-77 -42 -77 -158v-392z" />
<glyph unicode="C" horiz-adv-x="1493" d="M56 725q0 200 88 379.5t255 289t389 109.5q46 0 92 -5.5t96 -14.5q52 -9 104 -19q74 -26 116 -56q2 9 -42 239q109 -239 109 -243l-2 4l144 -324q-1 -20 -21 -27q-18 7 -28 27q-50 86 -131 170t-192 139t-237 55q-148 -4 -251.5 -104.5t-158 -259t-62.5 -336.5 q0 -10 -1 -31t-1 -31q0 -113 18.5 -214t61 -187.5t113.5 -149t173 -92.5q80 -21 192 -27q170 3 311 80.5t215 247.5q49 70 57 70q2 0 2 -3q0 -9 -17 -47q0 -4 -2 -12t-2 -12q-108 -222 -250 -298q-142 -77 -318 -77q-10 0 -29 1t-28 1q-247 8 -416.5 109t-255 269.5 t-91.5 379.5z" />
<glyph unicode="D" horiz-adv-x="1712" d="M6 0q8 10 63 39q33 1 52 17q62 3 102 21.5t66.5 80.5t26.5 186v824q0 104 -26.5 156t-80.5 70q-53 17 -149 17q-46 34 -54 62q22 -6 446 -6q188 0 456 1q182 0 325 -59t238 -159.5t144 -228t50 -265.5q0 -158 -48.5 -295t-144.5 -241t-237 -162t-319 -58h-910zM553 340 q0 -132 21 -187.5t85 -74t217 -22.5q174 0 290 72.5t192 223t76 382.5v36q-2 156 -33.5 274.5t-119 202t-196.5 126t-261 42.5q-94 0 -150 -15.5t-88 -69.5q-33 -52 -33 -162v-828z" />
<glyph unicode="E" horiz-adv-x="1460" d="M10 1472q134 -7 447 -7q208 0 495 3q99 0 153.5 4.5t68.5 33.5v6q0 37 -34 100q86 -106 84 -100l152 -380q0 -4 17 -86q-13 26 -53 80q-60 90 -148.5 153t-199.5 97t-224 35q-124 0 -173.5 -50t-49.5 -161v-389h203q92 0 156 15t118 66.5t58 163.5q26 58 30 104v-773 q0 14 -31 86q-6 168 -99.5 227.5t-231.5 59.5h-203v-457q0 -133 61 -191.5t209 -58.5q8 0 22.5 1.5t26.5 1.5q111 4 215.5 46.5t196.5 121.5q92 80 156 184q14 23 32 57q20 33 26 33q2 0 2 -5q0 -12 -12 -53q0 -8 -8 -32l-233 -524q-19 -44 -83 -136q20 80 38 134q4 17 4 31 q0 53 -52 75q-42 18 -168 18q-71 0 -169 -6l-795 -2v8q0 43 42 50q58 2 100 4.5t75.5 25.5t54.5 94.5t21 210.5v721q0 128 -24.5 193.5t-62.5 85.5t-95 20h-69q-38 33 -46 61z" />
<glyph unicode="F" horiz-adv-x="1239" d="M-16 1472q160 -2 928 -4q48 0 98 13t74 31q14 11 30 16q6 2 7 19q0 26 -14 85q11 0 65 -100l202 -502q-24 8 -70 70q-36 68 -116.5 140.5t-200 121.5t-262.5 49q-130 0 -167.5 -57.5t-37.5 -169.5v-373h232q116 0 190 66.5t78 176.5q22 87 26 83q4 -74 6 -76v-569 q2 -27 2 -48.5t-2 -36.5q4 20 -32 114q0 96 -65 165.5t-203 69.5h-232v-371q0 -121 13 -186t57.5 -99t173.5 -54q58 -25 66 -46h-820q0 12 20 22q18 10 66 34q56 3 96 23t66 84t26 185v744q0 114 -13 178t-41 94t-69.5 38.5t-113.5 8.5q-11 0 -23 -2q-40 37 -40 63z" />
<glyph unicode="G" horiz-adv-x="1716" d="M20 721q0 168 60 319.5t176 262.5t272 161q102 34 264 35q172 -1 292 -27q89 -47 118 -47q8 0 12 3q4 5 4 19q0 38 -31 141q18 0 52 -64l189 -416q0 -3 2 -10.5t2 -13.5q0 -11 -17 -17q-32 13 -55 49q-56 85 -122.5 147.5t-139 103.5t-150.5 61q-80 20 -160 20 q-242 0 -364 -196q-123 -196 -131 -540q0 -312 109 -494t370 -198q118 0 216 23t173.5 110t75.5 263v59q-6 84 -28.5 129.5t-58.5 61.5t-89.5 19.5t-112.5 6.5q-74 28 -82 54q85 -2 82 -2h740q20 2 86 3q-28 -24 -94 -59q-208 0 -208 -192q0 -47 -4 -105q10 -245 27 -283 q13 -26 13 -40h-1.5h-0.5q0 -7 57 -80q-116 62 -123 72q-8 10 -29 12q-74 0 -216 -39t-212.5 -54.5t-206.5 -15.5h-12q-184 5 -324.5 69t-234 171t-139.5 240t-46 278z" />
<glyph unicode="H" horiz-adv-x="1825" d="M8 2q6 22 74 45q122 0 178 59.5t56 196.5v865q0 106 -26.5 159t-69 68.5t-108.5 15.5h-56q-34 37 -42 57h843q-1 -24 -69 -57q-86 0 -133 -19t-74.5 -91.5t-27.5 -225.5v-251h727v200q0 144 -14 223.5t-43.5 114t-72.5 42t-130 7.5q-39 31 -47 56q386 3 694 3h149 q0 -28 -71 -59q-85 0 -131 -14.5t-72 -71.5t-26 -180v-852q0 -106 31.5 -156.5t78 -69.5t132.5 -19q46 -26 55 -46q-108 -1 -321 -1t-532 1q10 22 68 45q90 0 144 30.5t81 87.5t27 151v456h-727v-465q0 -112 32.5 -166t75.5 -74.5t125 -20.5q23 0 51.5 -15t28.5 -29h-858z " />
<glyph unicode="I" horiz-adv-x="907" d="M20 1470q202 -2 867 -3q0 -24 -68 -52q-88 0 -137.5 -13.5t-79.5 -71.5t-30 -181v-842q0 -106 29.5 -161t83 -72.5t128.5 -26.5q22 -2 45.5 -17t20.5 -27q-121 -2 -846 -3q16 14 47 42q102 0 153.5 27t77 84t25.5 167v788q0 187 -47 245t-133 58h-68q-60 34 -68 59z" />
<glyph unicode="J" horiz-adv-x="1239" d="M-33 334q1 36 9 74q12 60 48 90t80 30q50 0 84.5 -29t34.5 -79q-21 -17 -40 -17q-15 0 -30 11t-33 11q-20 0 -44 -15q-37 -24 -37 -68q0 -8 1 -16q8 -57 32 -95q54 -99 147 -155t233 -60q114 0 185 33.5t105 106t34 192.5v784q0 122 -27.5 183t-70 78.5t-104.5 24.5h-43 q-68 34 -78 55q45 -3 572 -3h294q0 -13 -21.5 -31.5t-47.5 -18.5l-38 -9q-61 0 -102.5 -16t-69.5 -73.5t-28 -172.5v-705q0 -154 -53 -252t-138 -147t-178 -65.5t-195 -16.5q-126 0 -236.5 45t-177.5 129.5t-67 196.5z" />
<glyph unicode="K" horiz-adv-x="1599" d="M16 1466q86 0 846 4q0 -24 -70 -55q-124 0 -178.5 -52.5t-54.5 -170.5v-520q78 88 195 188q118 102 154 144q23 22 63.5 62.5t79.5 85t68.5 93.5t29.5 86q0 52 -43.5 65.5t-122.5 18.5q-39 29 -47 57q16 1 101 1q171 0 620 -3q1 -24 -49 -59q-77 -2 -164.5 -43.5 t-174.5 -106.5t-167 -137t-174 -164l561 -800q40 -52 82.5 -84t123.5 -32q59 -28 59 -44q-156 2 -358 2t-450 -2q6 26 54 51q28 2 58 4.5t54 8.5t42 21.5t18 43.5q0 61 -64 155l-348 508l-201 -188v-280q0 -114 34 -174t80.5 -78t102.5 -21q20 5 39 5q48 -26 48 -54h-845 q6 30 62 46q32 1 80 7.5t84 30t58 85t22 173.5v805q0 120 -29 177.5t-69.5 70t-104.5 12.5q-19 2 -53 2q-44 31 -52 55z" />
<glyph unicode="L" horiz-adv-x="1347" d="M19 0q7 32 65 48q34 -2 64 -2q181 0 181 58l-1 208v820q0 122 -27.5 183t-70 78.5t-105.5 17.5h-45q-53 31 -61 57q65 -2 359 -2q221 0 570 1q-2 -21 -126 -49q-88 -11 -140 -24t-87.5 -70t-35.5 -175v-850q0 -134 60 -191q61 -57 213 -57q178 10 303 99.5t237 273.5 q44 52 44 54q1 0 1 -1q0 -25 -252 -589q-4 8 -8 41q-18 73 -112 73h-3q-98 -2 -214 -2h-809z" />
<glyph unicode="M" horiz-adv-x="1931" d="M-2 1472q193 -5 354 -5q80 0 152 1q33 0 43.5 -6t25 -46t19.5 -52l364 -844l408 872q24 54 35 65t49 11l483 6q-2 1 -6 1q-23 0 -107 -38q-98 -45 -127 -76t-42 -94t-13 -171v-711q10 -140 17.5 -204t65.5 -93q59 -29 129 -51q62 -19 61 -33q0 -2 -1 -4l-820 2 q14 20 64 42q90 3 127 13.5t67 39.5t44.5 97t14.5 191v983q-505 -1106 -567 -1218q11 -8 -13 52q-25 60 -29 70l-440 1076v-1016q-1 -14 -1 -27q0 -259 229 -259q55 -30 67 -48q0 -5 -133 -5q-160 0 -513 7q13 24 51 49q126 0 184.5 113.5t58.5 341.5v660q0 120 -37 174 t-77.5 72.5t-128.5 19.5q-48 36 -58 42z" />
<glyph unicode="N" horiz-adv-x="1569" d="M0 5q6 31 51 51q61 0 112 26t90.5 132t39.5 318v816q-38 63 -196 63h-5h-28q-54 34 -62 63q33 -3 188 -3q124 0 326 2q50 -42 64 -62q3 -9 12 -27l692 -1095v711q0 178 -27 268t-69 116.5t-100 26.5l-49 14q-65 16 -69 44q75 -2 189 -2q184 0 470 5q-7 -19 -57 -47 q-143 0 -189.5 -108t-46.5 -301l8 -1018q-36 0 -104 2q-16 0 -892 1321v-846q0 -188 34 -280t89 -115.5t145 -23.5q78 -24 79 -56q-267 -3 -431 -3q-267 0 -264 8z" />
<glyph unicode="O" horiz-adv-x="1599" d="M56 744q4 189 86 358.5t243 279t387 117.5q8 0 25 1t24 1q167 0 298 -56.5t221.5 -155t143.5 -229.5q52 -132 64 -276q4 -50 4 -74q0 -143 -47 -275.5t-142 -238.5t-237 -167.5t-321 -61.5h-49q-171 11 -303.5 77t-220.5 174t-132 243t-44 283zM231 752 q0 -181 46.5 -332.5t151.5 -244.5t359 -159q133 2 225.5 43.5t173.5 131t109 227.5t28 332v65q-6 306 -153 471.5t-391 165.5q-161 -1 -279.5 -101t-176.5 -211q-58 -110 -91 -306q-2 -26 -2 -82z" />
<glyph unicode="P" horiz-adv-x="1347" d="M-14 -2q11 20 68 46q76 0 112.5 13t68 44t47 98.5t15.5 185.5v651q0 164 -20.5 245t-55.5 105.5t-92 24.5l-73 9q-56 26 -56 54q136 -4 884 -6q238 0 371 -91t133 -261q-2 -120 -56 -207t-179 -136.5t-327 -49.5q-10 0 -31 1t-31 1l-236 6v-303q0 -170 20 -246t65 -106 t151 -32q60 -24 68 -44q-243 1 -418 1q-351 0 -428 -3zM528 784l268 -4q96 0 169 36.5t128 101t55 158.5v28q-10 150 -84.5 227t-287.5 84q-84 0 -134 -12.5t-82 -66.5t-32 -168v-384z" />
<glyph unicode="Q" horiz-adv-x="1599" d="M56 760q8 206 101 376t263.5 268.5t398.5 98.5q172 -2 309 -65t232 -172.5t143.5 -247.5t48.5 -287q-2 -148 -38 -272t-121 -228.5t-238 -184.5t-379 -126q102 0 212 -61t221.5 -177t213.5 -116q116 20 191.5 126t101.5 232q26 38 31 100q7 -81 7 -105q0 -9 -1 -9 q-2 -97 -53.5 -193.5t-136.5 -199.5q-56 -68 -155 -68q-50 0 -110 17q-97 70 -140.5 114.5t-145.5 149t-156 139.5q-35 17 -80 23q-28 0 -52 -14t-28 -34q4 -16 8.5 -60t12.5 -61t8 -37q0 -50 -15.5 -73t-81.5 -25q-109 54 -116 105q-4 25 -4 33q0 141 297 231l-4 6 q-184 4 -325.5 72.5t-234 181.5t-139 254t-46.5 289zM320 735q0 -162 23 -290t79 -225.5t151.5 -150.5t235.5 -53q190 4 294.5 106t141.5 259t39 371q0 166 -29 296t-88 220t-147.5 137t-208.5 47q-252 0 -371.5 -198t-119.5 -519z" />
<glyph unicode="R" horiz-adv-x="1599" d="M12 2q8 28 72 54q92 0 145 20t78 74.5t25 156.5v785q0 114 -17 181t-47 96t-68.5 35.5t-107.5 6.5q-73 26 -80 55q37 4 341 4q202 0 523 -2q184 0 310 -33t194 -106t76 -189q0 -346 -404 -396l312 -521q34 -54 83.5 -90.5t110 -54.5t122.5 -18q24 0 51.5 -21t27.5 -35 h-29q-64 0 -250 -2t-233 -2h-15l-427 721h-242v-418q0 -150 54.5 -198.5t146.5 -53.5q22 -4 48 -4q76 -22 78 -45q-37 2 -256.5 2t-621.5 -2zM563 776q62 -1 109 -1q68 1 102 3q56 4 138 30t120 32q62 12 108 91t46 185q0 29 -2 43q-9 124 -100.5 190t-239.5 66 q-71 -7 -135.5 -14.5t-105 -40t-40.5 -113.5v-471z" />
<glyph unicode="S" horiz-adv-x="1347" d="M32 452h2q12 0 60 -45q74 -77 135 -150t156 -136.5t203 -83.5q48 -9 143 -17q140 4 238 62q99 58 119 190q6 36 6 68q0 78 -42 130t-118.5 89t-218.5 80t-246 73q-182 53 -273.5 161.5t-91.5 242.5q6 131 72.5 217.5t179 127t260.5 40.5q39 0 60 -2q42 0 122 -14.5 t105 -16.5q40 -6 81 -20q0 53 4 130q22 0 37 -68l197 -410l18 -54q-28 9 -64 58q-73 138 -227.5 241t-336.5 103q-118 -6 -203 -84t-85 -196q8 -66 51 -113t110 -77t171 -58q106 -28 168 -44q174 -44 283 -117t157.5 -163t48.5 -188q0 -140 -81.5 -241t-211.5 -153 q-128 -51 -268 -51q-40 0 -151 17.5t-161 19.5q-130 -47 -130 -154q0 -12 2 -25q-12 11 -60 119l-192 451q-22 48 -28 61z" />
<glyph unicode="T" horiz-adv-x="1347" d="M-96 1069q-8 0 -8 8q0 12 16 43l126 338q56 10 261 10h753h244l150 -379q-54 9 -70 47q-36 74 -108 137.5t-161 100.5t-171 37q-89 0 -116.5 -57.5t-27.5 -189.5v-732q0 -144 11 -218t59 -117.5t154 -43.5q32 -7 50 -5q55 -20 56 -44q0 -5 -223 -5t-669 5q6 32 54 56 q52 0 80 -4q62 2 102 26t64 100q25 76 25 222v833q0 106 -41.5 142t-132.5 36q-49 -4 -125.5 -35t-154.5 -94q-77 -62 -129 -154q-44 -56 -68 -63z" />
<glyph unicode="U" horiz-adv-x="1599" d="M-63 1470q73 -2 905 -3q-2 -16 -59 -44q-107 -2 -150.5 -11.5t-81 -38.5t-57 -101t-19.5 -201v-694q0 -140 47.5 -217.5t134.5 -107.5t219 -32q444 0 445 371v600q0 180 -31.5 271.5t-86 124.5t-148.5 33q-44 32 -55 52q68 -2 632 -4q12 0 44 -1q-3 -16 -55 -44 q-64 -2 -95 -12.5t-67.5 -46t-59.5 -122t-23 -234.5v-564q0 -138 -31 -228.5t-92 -143.5t-149 -77t-215 -28h-70q-126 0 -227.5 16.5t-180.5 62t-123 130.5t-44 215v721q0 130 -26 195.5t-68 84.5t-107 19l-55 12q-50 18 -51 47z" />
<glyph unicode="V" horiz-adv-x="1384" d="M-121 1469h56q168 0 785 -3q0 -22 -73 -57q-92 0 -146 -23q-55 -22 -57 -90q10 -52 17 -72l348 -968l315 844q35 99 35 166q0 139 -161 139h-2q-62 33 -70 64q70 -1 676 -3q0 -26 -90 -61q-67 0 -119.5 -25t-101 -92t-95.5 -188l-462 -1098q-28 -26 -47 -38 q-16 10 -34 34l-465 1241q-24 68 -59.5 105t-81 51t-107.5 14q-23 0 -42 25t-19 35z" />
<glyph unicode="W" horiz-adv-x="1931" d="M-40 1472q40 -3 433 -3h219q-10 -19 -59 -51q-109 -19 -109 -134v-8q3 -24 21 -100l247 -900l224 824q-23 70 -42.5 129t-41.5 99t-53 68.5t-81 28.5q-22 33 -34 47q92 -2 620 -4q14 0 47 1q-10 -17 -61 -47q-74 0 -108 -36t-37 -114q11 -78 19 -117l256 -879l196 752 q28 106 28 188q0 126 -54 166t-128 40q-46 30 -50 47q31 -2 186.5 -2t436.5 2q-5 -17 -47 -51q-94 0 -169 -84.5t-148 -342.5l-235 -991q-148 -51 -164 -51q-8 1 -39 111l-265 948l-224 -785q-36 -53 -128 -221q-48 -48 -64 -50q-8 0 -28 81l-309 1151q-34 124 -89.5 184 t-115.5 60q-12 0 -31 17t-19 27z" />
<glyph unicode="X" horiz-adv-x="1599" d="M-69 2q1 26 41 49q92 10 180 57.5t160 112.5t124 131l285 365l-385 547q-96 147 -254 147h-2q-64 33 -72 58h810q0 -24 -74 -54h-4q-150 0 -156 -75q10 -40 32 -72l264 -379l191 256q65 85 65 151q0 114 -204 115q-53 34 -60 63h247h497q-18 -10 -51 -49q-116 0 -215 -85 q-98 -86 -178 -176l-264 -312l456 -639q67 -96 115 -126.5t98 -35.5q57 -32 57 -44q0 -1 -1 -2q-4 -6 -268 -6q-192 0 -520 3q0 28 58 54q90 0 139.5 14t49.5 61q0 54 -56 133l-284 408l-189 -248q-119 -158 -127 -264q6 -104 176 -104q54 -30 54 -58q-251 4 -735 4z" />
<glyph unicode="Y" horiz-adv-x="1384" d="M-186 1469q26 2 240.5 2t618.5 -2q0 -33 -85 -58q-86 0 -132 -13.5t-48 -57.5q6 -38 32 -80l332 -525l264 410q68 102 68 168q0 54 -46 76t-142 22q-88 24 -96 53q88 4 738 5q0 -12 -32 -35t-46 -23q-62 0 -149 -46.5t-186 -184.5l-340 -488v-311q0 -121 17 -188t50 -97 t71.5 -33t122.5 -7q48 -8 56 -54q0 -1 -219 -1t-657 1q8 32 61 54q50 0 78 -5q56 3 95.5 21.5t65.5 77t26 170.5v304l-380 588q-55 86 -98.5 130.5t-80.5 58.5t-89 14h-45q-65 29 -65 54z" />
<glyph unicode="Z" horiz-adv-x="1347" d="M-5 0q8 18 25.5 43.5t22.5 36.5l917 1260q16 22 17 40q-1 30 -93 31q-236 0 -361 -14t-221 -72q-96 -59 -236 -257q-4 0 6 40q2 6 4 15t4 13l164 404q16 39 28 39q8 -10 37 -36t72 -54q34 -23 176 -23q39 0 86 2h613q37 0 88 -4q0 -20 -48 -68l-892 -1236 q-32 -51 -36 -72q3 -22 33 -27t103 -5q84 0 133 -5q109 3 199 17t179 52t168.5 113t133.5 191q15 37 35 37q1 0 1 -3q0 -36 -198 -550q-22 -64 -47 -64q13 9 13 31q0 14 -5 34q-12 68 -131 79.5t-281 11.5h-709z" />
<glyph unicode="[" horiz-adv-x="801" d="M135 -116v1476q0 58 6 85.5t33.5 42.5t89.5 15l505 3q-5 -50 -44 -50h-260q-64 0 -81 -42q-16 -42 -16 -122v-1352q0 -116 132 -116h221q51 -13 51 -33q-100 -7 -508 -14q-66 0 -97.5 24.5t-31.5 82.5z" />
<glyph unicode="\" horiz-adv-x="643" d="M-202 1516q0 14 33 13t65 -1h80q56 0 50 -17t30 -83l732 -1364q52 -44 52 -64q-51 4 -160 0q-22 0 -32 5t-20 22t-12 20l-751 1397q-67 57 -67 72z" />
<glyph unicode="]" horiz-adv-x="801" d="M-49 1511q191 -4 589 -8q62 0 89 -15t33 -42.5t6 -85.5v-1476q0 -58 -31 -82.5t-97 -24.5l-577 -8q85 48 121 55h219q133 0 133 116v1352q0 80 -17 122t-83 42h-256q-125 37 -129 55z" />
<glyph unicode="^" horiz-adv-x="1292" d="M27 386l545 1082h159l525 -1060l-172 53l-437 875l-432 -875z" />
<glyph unicode="_" horiz-adv-x="1024" d="M0 -131h1024v-189h-1024v189z" />
<glyph unicode="`" horiz-adv-x="780" d="M144 1272q8 50 35.5 89.5t76.5 39.5q60 1 116 -61l236 -240q48 -48 68 -76q-23 -5 -56.5 10.5t-39.5 17.5l-344 116q-84 28 -92 104z" />
<glyph unicode="a" d="M56 172q0 106 49 178.5t137 116t201 64t261 28.5v153q0 87 -52 141.5t-136 54.5q-50 0 -97 -16.5t-75 -44t-96 -139.5q0 -50 8 -84q1 -5 1 -8q0 -25 -44 -28q-122 14 -133 112q2 60 57 121t154 100t221 39q404 0 404 -268v-483q0 -141 88 -141q22 0 37 7t24 19.5t24 40.5 q15 27 31 71q17 0 17 -40q0 -8 -1 -18q0 -75 -68 -128t-144 -53q-218 0 -224 205q4 16 4 43q-34 -118 -143.5 -183t-228.5 -65q-108 0 -189 57.5t-87 147.5zM218 251q2 -8 4 -23.5t4 -23.5q16 -66 63 -102q40 -31 129 -31q15 0 30 1q64 2 123 39.5t96 106t37 163.5v127 q-8 0 -20 1t-20 1q-100 0 -190 -28.5t-147 -85t-109 -145.5z" />
<glyph unicode="b" horiz-adv-x="1239" d="M-126 1400q2 1 145 12.5t225 27.5t100 88q20 0 20 -48v-36v-696q112 212 320 212q154 0 265.5 -62.5t171.5 -166t71 -223.5q2 -14 2 -43q0 -126 -64 -242.5t-184 -188.5q-118 -71 -274 -71q-79 0 -126.5 18.5t-135.5 62.5t-126 44q-29 16 -53 16q-43 0 -64 -55 q-32 -45 -46 -69q-3 0 -9 16q44 134 44 340v768q0 94 -11 144t-57 79t-144 29q-70 20 -70 44zM362 418q0 -180 76 -288t209 -118q145 0 259 128t114 322q0 98 -27 200.5t-125 176t-204 73.5q-144 -6 -216 -126q-74 -119 -84 -315q-2 -18 -2 -53z" />
<glyph unicode="c" horiz-adv-x="1020" d="M20 418q0 21 4 61q12 120 79 229.5t184.5 179.5t271.5 72q104 0 192.5 -24t140.5 -69t56 -99q0 -73 -35 -108.5t-89 -39.5q-47 3 -77.5 29.5t-34.5 70.5q108 42 108 76q0 6 -2 10q-16 38 -114 70t-168 32q-89 0 -155.5 -53t-102.5 -143t-38 -204q4 -8 4 -20 q4 -106 53.5 -204.5t131 -160t179.5 -67.5q196 0 344 144q40 46 58 46q5 0 5 -6q0 -12 -19 -48q0 -2 -92 -93t-190 -113q-100 -23 -190 -23q-169 0 -282.5 63.5t-167.5 166.5t-54 225z" />
<glyph unicode="d" horiz-adv-x="1347" d="M68 465q4 11 4 19q4 124 63 233t174 176t275 67q58 0 118 -20t107 -59t67 -89v256q0 138 -16 204.5t-47.5 85t-91.5 18.5h-78q-65 14 -71 40q18 -1 38 -1q86 0 196 28q134 35 202 72q43 25 59 25q21 0 21 -60v-40v-1176q0 -86 25 -128t48 -60t178 -58q-58 0 -407 2 q-38 0 -47 7t-9 44v89q-44 -84 -119 -129t-165 -48q-160 0 -279 71.5t-181 186.5t-64 244zM236 518q0 -194 72 -332t292 -174q280 0 280 467q0 174 -64 301.5t-220 127.5q-87 -2 -157.5 -55t-140.5 -133q-63 -72 -63 -177q0 -12 1 -25z" />
<glyph unicode="e" d="M60 444q3 108 48.5 207.5t131.5 167.5q66 54 168 79.5t211 25.5q206 -2 333 -164q34 -54 36 -54t-10 24q-10 20 -10 22q0 4 38 -61q31 -53 31 -114q0 -52 -23 -109l-761 -18q25 -202 128 -294q99 -88 294 -88h17h17q197 0 335 178q38 68 52 90q6 0 6 -15t-6 -45 q0 -8 -8 -32q-54 -89 -139 -153t-187 -96t-209 -32q-144 0 -252 61.5t-170 163.5q-65 114 -71 256zM234 538l619 1h14q59 0 59 31q4 10 4 21q0 56 -88 161q-85 99 -235 99q-26 0 -54 -3q-120 0 -198.5 -67t-104.5 -137q2 -12 -16 -106z" />
<glyph unicode="f" horiz-adv-x="692" d="M-17 5q0 30 50 46q85 0 124 14.5t52.5 57t13.5 137.5v612h-176q-40 0 -47 21q7 3 59 3l89 24q76 0 75 63q0 86 24 204.5t120.5 228.5t288.5 112h12q201 0 222 -189q0 -43 -12 -55q-12 -10 -60 -48q-46 4 -48 57t-8 96q2 11 2 21q0 52 -45 58q-53 6 -99 8q-66 0 -125 -73 t-59 -183v-300l198 -16q52 0 52 -22q-33 -12 -53 -10h-197v-612q0 -88 20 -134t56 -61t100 -18q20 4 52 4q58 -15 58 -46q-17 -7 -201.5 -7t-537.5 7z" />
<glyph unicode="g" d="M8 -289q0 51 46 84.5t126 36.5q50 -8 68 -8q-48 -12 -73.5 -45t-44.5 -74q8 -115 194 -153q130 -36 248 -36q104 0 189 24t136 68.5t55 102.5q0 70 -54 135t-160 74.5t-296 13.5q-97 3 -171 3q-27 0 -51 -1h-5q-84 0 -111 48q-28 48 -28 116q12 74 78.5 121t148.5 47 q-98 30 -155 120t-60 196q8 109 70 194.5t160 131.5t210 46q92 0 180 -28q42 44 131 91.5t161 47.5q52 0 90 -29q38 -30 38 -78q0 -45 -34 -79t-86 -37q27 24 27 54t-28 65q-8 11 -42 11q-44 0 -129 -18q-32 0 -72 -53q94 -28 149 -118.5t55 -200.5q0 -112 -61.5 -196.5 t-162.5 -129.5q-102 -44 -212 -45q-34 1 -100 12t-104 11q-50 0 -82.5 -23t-32.5 -41q0 -38 24.5 -57t60.5 -24.5t84 -6.5t66 -4h107q109 0 197.5 -8t165.5 -31.5t126.5 -73t51.5 -127.5q0 -222 -176 -299t-392 -77q-170 0 -286.5 37t-174 94t-59.5 116zM253 597 q0 -150 63.5 -241t215.5 -92q128 0 205 88t81 242q-37 296 -273 314h-9q-117 0 -200 -75t-83 -236z" />
<glyph unicode="h" horiz-adv-x="1384" d="M-8 1376q0 12 14 22.5t37 10.5q74 0 182.5 17.5t180.5 57.5q65 66 65 90q0 5 -2 8q7 0 7 -42t-7 -125v-655q54 34 112.5 70t114.5 64t114 45t118 17q208 0 208 -225v-438q0 -117 21 -170t58.5 -64.5t115.5 -11.5q52 -19 52 -45q-11 2 -106 2q-159 0 -553 -6q6 26 60 49 q42 0 71 12.5t49 66.5t76 594q0 160 -127 160q-124 0 -384 -176v-420q0 -144 31 -190q32 -47 80 -51q16 4 32 4q34 -1 58 -45q-43 -3 -207.5 -3t-450.5 3q6 30 56 49q28 0 44 -4q74 4 111 50t37 196v787q0 123 -16.5 181t-51 76.5t-101.5 40.5z" />
<glyph unicode="i" horiz-adv-x="692" d="M0 0q12 34 56 51q37 2 83.5 5.5t69.5 23.5t35 73t12 154v293q0 104 -38 140q-36 36 -92 56l-102 5q8 31 44 31q74 4 157 15t149 57q48 18 88 86q15 0 15 -44q0 -32 -8 -86v-596q0 -134 35.5 -174t111.5 -43q24 -10 50 -10q50 -16 50 -28q0 -4 -6 -7q-37 -3 -340 -3 q-152 0 -370 1zM260 1174q0 54 37.5 96t70.5 43q60 0 87 -43.5t27 -95.5q0 -54 -38 -94q-35 -36 -72 -36h-8q-54 3 -79 41.5t-25 88.5z" />
<glyph unicode="j" horiz-adv-x="545" d="M-289 -324q4 35 37 58.5t80 25.5q34 -3 34 -24q0 -8 -6 -20q-12 -25 -12 -59q0 -21 4 -45q10 -56 126 -56q33 0 73 4q60 0 117 59q59 81 59 365v561q0 142 -32.5 186.5t-96.5 56.5l-126 16q17 8 69 28q40 0 106 15t127.5 39t89.5 46q44 30 68 82l4 -118v1l4 -897 q0 -172 -74 -282t-175.5 -160t-186.5 -50q-148 0 -218.5 49t-70.5 119zM204 1192q0 53 37 91q31 31 49 31q4 0 7 -1q68 0 88.5 -46.5t20.5 -96.5q0 -52 -36 -94q-30 -34 -58 -34q-6 0 -13 2q-60 0 -77.5 47t-17.5 101z" />
<glyph unicode="k" horiz-adv-x="1272" d="M-64 1388l93 12h-2q80 0 184.5 10t171.5 52q10 6 28.5 44.5t26.5 38.5q2 -51 10 -109v-992l140 92q88 48 172 128q100 82 100 151q0 57 -76 57l-64 12q-76 10 -84 30q110 0 698 2q0 -8 -30 -24t-48 -16q-80 -3 -192 -62q-112 -60 -280 -186l312 -440q44 -60 97 -96 t99 -36q104 -24 104 -56q-33 1 -212 1t-504 -1q82 52 76 47q16 0 28 -4h3q73 0 73 53q0 70 -108 216l-136 184l-168 -105v-123q0 -66 10 -112t47 -77.5t111 -31.5q28 -21 28 -47q-221 0 -649 2q6 26 48 49q33 0 49 -4q74 4 109 49.5t35 179.5v764q0 153 -18 218.5t-59 81.5 t-223 48z" />
<glyph unicode="l" horiz-adv-x="692" d="M-62 1380q0 28 62 29q210 9 289 46t112 63t39 40q8 -43 8 -91v-19v-1168q0 -86 16 -135t57.5 -71.5t119.5 -22.5q47 -20 47 -51q-1 -4 -175 -4t-521 4q7 26 59 51q76 0 112.5 13t54.5 63.5t18 165.5v843q0 136 -37 178t-111 54z" />
<glyph unicode="m" horiz-adv-x="1931" d="M-2 772q8 12 47 42q106 33 199.5 51.5t129.5 44.5q-1 -3 1 -3q9 0 75 73q-4 -38 -4 -57q0 -12 2 -15v-124q137 82 233.5 129t174.5 47q92 -3 143.5 -42.5t67.5 -129.5q103 64 225 118t188 54q88 -4 148 -49t60 -151v-444q0 -110 11 -164t34.5 -74.5t66.5 -31.5 q44 -10 98 -14q47 -32 47 -33t-7 3q-30 -4 -188.5 -4t-445.5 4q14 12 34 26q62 0 92 34t40 83t10 131v384q0 192 -120 192q-94 0 -293 -117v-463q0 -112 23.5 -173t90.5 -61q58 -18 57 -36h-156q-226 0 -409 -4q4 10 44 36q51 3 76 21.5t44 64.5t19 144v404q0 188 -121 188 q-54 0 -121.5 -32t-165.5 -89v-436q0 -146 23 -203.5t97 -57.5q58 -24 61 -38q-87 1 -242.5 1t-379.5 -1q7 12 39 28q24 0 38 15q57 2 87.5 19.5t47.5 75.5t17 182v243q0 133 -36 173t-104 40h-40q8 2 -58 -4z" />
<glyph unicode="n" horiz-adv-x="1239" d="M-30 2q6 14 52 32q34 0 54 13q62 4 98 48q35 43 35 173v332q0 106 -34.5 143t-102.5 37q-22 4 -43.5 2t-58.5 -2q12 10 42 26q194 38 316 114q70 50 82 83q2 -84 5 -84l1 1v-156q260 190 416 196q96 0 154 -58q58 -56 58 -158v-428q0 -112 13 -168.5t37 -74t80 -28 t68 -12.5q33 -21 38 -33q-308 2 -616 2q18 20 48 39q47 4 68 22.5t36 74.5q16 58 16 178v376q0 160 -111 160q-95 0 -305 -135v-461q0 -117 35 -168.5t103 -51.5q62 -34 58 -32q-68 -4 -285 -4q-145 0 -357 2z" />
<glyph unicode="o" d="M102 496q6 120 67 226t148.5 169t241.5 65h11q108 0 208 -39q106 -41 158 -123t65 -169.5t13 -165.5q0 -130 -61 -246.5t-146 -183t-244 -66.5q-16 -1 -32 -1q-159 0 -242 76q-91 82 -138 195t-49 263zM289 479q0 -210 59.5 -338.5t214.5 -128.5q101 0 162 58.5t88 164 t27 253.5q-4 126 -31 219.5t-88.5 147t-165.5 53.5q-130 -3 -194.5 -117.5t-71.5 -311.5z" />
<glyph unicode="p" horiz-adv-x="1239" d="M-58 772q0 30 58 64q74 6 164 38t156 70q54 60 67 94q2 -18 2 -40q0 -33 -4 -74v-144q47 91 126 137.5t177 46.5q108 0 199 -35t133 -99t79 -145t41 -174q0 -247 -127 -393t-309 -146q-96 0 -158 28t-90.5 59t-70.5 89v-283q0 -110 15 -167.5t42.5 -77t70.5 -31t98 -11.5 q48 -22 48 -29q-20 5 -411 5q-130 0 -302 -1q0 19 34 25q46 2 74 14.5t56 28t45 57.5q17 44 17 126v820q0 73 -21.5 107.5t-55 41.5t-95.5 7q-60 0 -58 -8zM385 471q0 -199 64.5 -325t214.5 -130q2 2 4.5 3t3.5 1q152 2 218 145t66 319q0 184 -82 306q-80 122 -222 122 q-142 -6 -204.5 -131.5t-62.5 -309.5z" />
<glyph unicode="q" horiz-adv-x="1239" d="M85 480q2 90 38.5 175.5t90 154t146.5 108.5t203 42q80 0 134.5 -21.5t132.5 -63.5q78 -41 114 -43q10 -7 19 -7q31 0 62 76q21 62 45 129q10 0 10 -93q0 -29 -1 -66q-4 -159 -4 -335v-741q0 -93 23 -137t61.5 -61t114.5 -17q38 -24 40 -31q-48 3 -179 3q-188 0 -547 -6 q6 20 47 26q182 46 203 84q22 36 22 112v380q-16 -42 -61 -86t-105 -72q-60 -27 -122 -27q-172 0 -289 70t-157.5 187.5t-40.5 259.5zM289 496q0 -130 31 -240t95.5 -177t156.5 -67q292 0 292 467q-3 222 -68 325q-64 104 -224 104q-140 -7 -208 -127.5t-75 -284.5z" />
<glyph unicode="r" horiz-adv-x="907" d="M-8 776q133 44 224 80q92 38 144 68q1 -1 2 -1q12 0 82 84q0 -110 3 -110l1 2v-123q13 10 63.5 51.5t89 69t81.5 45.5t82 18q70 -3 86.5 -43t16.5 -94q0 -45 -32.5 -78t-46.5 -28q-34 0 -59 13.5t-31 58.5t-22 57q-4 3 -11 3q-21 0 -69 -30q-43 -10 -67 -28 q-25 -18 -81 -70v-349q0 -158 18 -223t58 -90t146 -25q88 -24 94 -34q-16 1 -72 1q-167 0 -690 -9q8 26 58 59q20 0 28 -4q76 4 112 46.5t36 190.5v320q0 106 -37 139t-103 33h-104z" />
<glyph unicode="s" horiz-adv-x="1020" d="M17 415q52 -51 132.5 -155t138.5 -147t127 -69t144 -32q108 3 175 55.5t67 145.5q-3 63 -45 98t-109 51t-180 30t-164 24q-116 24 -176 88q-49 52 -49 118q0 15 3 32q2 76 47.5 145t116.5 112t171 45q49 0 94 -3t82 -7q38 -4 64 -6q43 -10 69 -10q8 0 15 1q7 21 7 49 q0 39 -15 91q41 -71 69 -111l135 -363q-56 37 -80 50q-29 74 -87.5 131.5t-129.5 91.5t-135 38q-105 0 -175 -48t-73 -120q4 -4 4 -13q9 -65 75.5 -94.5t210.5 -49t218.5 -34.5t128.5 -57q87 -63 87 -197q0 -22 -2 -47q0 -81 -43 -134.5t-134 -100t-201 -46.5 q-67 0 -163.5 12.5t-104.5 12.5q-43 12 -71 12q-30 0 -40 -14q-17 -23 -17 -44q0 -11 5 -22q-18 0 -37 60z" />
<glyph unicode="t" horiz-adv-x="801" d="M-32 870q96 37 183 76.5t152 125.5t117 380q-3 -41 -3 -114q0 -145 11 -414h284q18 -6 92 -25q-96 -29 -98 -29l6 2h-284v-616q0 -119 43 -167.5t121 -55.5h2q162 0 207 155q7 10 29 87q14 -95 18 -99q0 -100 -97 -156.5t-202 -56.5q-334 1 -334 269v640z" />
<glyph unicode="u" horiz-adv-x="1239" d="M-81 772q125 52 229 86t149 66q61 4 89 96q-5 -473 -5 -661q0 -124 2 -124q1 0 2 17q0 -178 123 -184q16 4 45 4q103 24 283 137v407q0 91 -38 125.5t-106 34.5l-124 -7q92 37 216 77t203 94q-2 -6 57 67q0 -81 4 -151v-567q0 -115 20 -165.5t56 -52t176 -71.5 q-215 -8 -319 -8t-97 8q-48 0 -48 43v121q-100 -65 -132.5 -85.5t-89.5 -49.5t-120.5 -41t-119.5 -12q-105 0 -153.5 61t-48.5 159v363q0 90 -15 136.5t-43 63.5t-73 17z" />
<glyph unicode="v" horiz-adv-x="1020" d="M-88 919q66 -1 225.5 -1t412.5 1q-8 -16 -58 -42q-63 0 -94 -18q-30 -19 -34 -63q8 -50 27 -100l209 -496l160 396q45 106 45 172v11q0 101 -122 101q-49 16 -61 34q162 0 500 5q-12 -9 -54 -35q-85 -15 -143.5 -89.5t-96.5 -170.5l-307 -730q-43 90 -65 130l-276 632 q-56 134 -99 175t-89 56z" />
<glyph unicode="w" horiz-adv-x="1569" d="M-37 922h523q-42 -28 -54 -40q-68 -19 -80 -77q2 -10 9 -30.5t11 -39.5l212 -530l168 459q-50 115 -83 158.5t-77 69.5q-34 26 -56 32q88 0 562 -5q0 -10 -86 -43.5t-88 -83.5q8 -46 28 -96l207 -491l125 344q52 138 52 211q0 62 -29 93t-105 31q-44 22 -64 38 q82 -4 528 -6q-44 -34 -58 -40q-83 0 -160.5 -100t-143.5 -280l-206 -565q-62 92 -326 669l-258 -662q-70 184 -338 734q-40 96 -75 140t-52.5 52t-85.5 58z" />
<glyph unicode="x" horiz-adv-x="1091" d="M-98 -5q22 9 64 39q34 0 75.5 31t106 81t132.5 130l160 185l-176 199q-94 112 -130 150t-59 49t-83 25q-41 22 -46 35q50 4 326 4q110 0 256 -1q-33 -26 -74.5 -34t-47.5 -48q6 -34 63 -88l123 -156l55 60q78 82 78 140q0 41 -17.5 48.5t-72.5 31.5t-63 48q86 -4 273 -4 q124 0 293 2q-48 -20 -86 -42q-48 -11 -103 -37.5t-113 -67.5t-96 -79l-124 -133l296 -340q106 -113 163 -170q54 -54 81 -54h3h1q0 2 -215 2q-154 0 -417 -1q17 16 54 40q60 0 87 15t27 49q0 50 -88 156l-139 164l-121 -131q-60 -59 -68 -137q3 -48 34 -86q30 -38 98 -38 q41 -22 57 -34q-51 1 -119 1q-171 0 -448 -4z" />
<glyph unicode="y" horiz-adv-x="1020" d="M-81 922q65 -2 229 -2t427 2q-50 -30 -81 -30q-70 -19 -92 -34.5t-25 -61.5q9 -58 31 -104l208 -469l132 336q53 131 53 206q0 58 -27.5 82.5t-93.5 24.5q-43 24 -51 50q49 -2 137 -2q132 0 352 4q0 -20 -43 -48q-72 0 -155 -97t-144 -263l-133 -348q-32 -98 -53 -148 q-20 -50 -37 -84l-113 -225q-29 -66 -97.5 -123t-150.5 -57q-59 0 -108 31q-50 30 -56 86q-15 98 -15 142q0 34 10 34q5 0 13 -12q42 -58 74 -120q54 -68 117 -68q31 0 65 16q92 56 124 128l88 191l-272 613q-61 138 -103 202t-62.5 76.5t-76.5 31.5q-48 24 -71 40z" />
<glyph unicode="z" horiz-adv-x="1057" d="M18 0q16 20 126 150l503 674q17 16 17 32t-40 16q-368 0 -495 -235q-25 -17 -99 -91q-1 0 -1 1q0 19 176 385q20 46 56 90q-1 -8 -1 -15q0 -95 85 -96q26 0 59 9h516h5q38 0 85 26q0 -8 -111 -122l-543 -699q-20 -31 -28 -53q4 -16 28 -16q14 0 92 -9q364 9 508 285 q-1 -2 -2 -2q-3 0 47 103q1 -60 -165 -476q-22 -49 -44 -49q1 5 1 11q0 29 -16 78q-19 0 -149 3h-610z" />
<glyph unicode="{" horiz-adv-x="696" d="M-16 641v6q120 16 175 49t68 71.5t13 100.5v344q0 136 57.5 199t141 100t239.5 92q-184 -142 -230 -319v-368q0 -98 -34.5 -154t-93 -79t-148.5 -36v-6q147 -18 211.5 -71.5t64.5 -161.5v-408q9 -72 58 -123t188 -153q-148 36 -231 64t-159 61t-64 151v424 q0 86 -64 148.5t-192 68.5z" />
<glyph unicode="|" horiz-adv-x="643" d="M246 0l2 1448q0 57 4 68.5t144 3.5v-56l3 -1467q-3 3 -153 3z" />
<glyph unicode="}" horiz-adv-x="696" d="M3 -286q209 97 241 278v368q0 98 35 154t93 80.5t148 38.5v8q-144 14 -210 67q-66 52 -66 164v404q-13 61 -59 152q-46 92 -179 154q112 -16 203 -67t169 -93t78 -146v-420q0 -89 62.5 -150t189.5 -65v-8q-118 -18 -172 -50.5t-67 -72.5q-13 -38 -13 -102v-340 q0 -105 -35 -165.5t-97.5 -75.5t-136 -54t-184.5 -59z" />
<glyph unicode="~" horiz-adv-x="1292" d="M24 500q149 292 353 292q68 0 128.5 -20.5t146.5 -62t145 -63.5q59 -24 123 -26q70 3 132 50q62 48 124 158l92 -80q-94 -152 -180 -218t-176 -69q-62 2 -122 24.5t-146 64.5t-146 62q-60 21 -126 21q-61 0 -104 -26.5t-73.5 -71.5t-63.5 -115z" />
<glyph unicode="&#xa1;" horiz-adv-x="579" d="M140 -396q0 68 22.5 183t47 230t41.5 249.5t17 282.5q3 55 24 55q27 0 24 -51q0 -156 18 -271.5t62 -334t52 -332.5q0 -219 -152 -237q-158 6 -156 226zM177 813q8 52 43.5 90.5t72.5 36.5q62 0 94.5 -44t32.5 -100q0 -50 -37.5 -87.5t-89.5 -36.5q-60 0 -88 43.5 t-28 97.5z" />
<glyph unicode="&#xa2;" horiz-adv-x="1237" d="M104 772q11 139 79.5 263.5t183.5 201t257 76.5q144 0 292 -84l112 203q22 37 31 45t52 51h29q20 0 20 -16q0 -18 -48 -107l-129 -229q49 -58 49 -119q0 -91 -116 -97q-34 8 -48 8l-300 -532q86 -30 159 -36q173 11 293 138q71 108 93 100q11 -18 -25 -93q0 -17 -21 -45 q-59 -82 -175 -154q-118 -72 -264 -74q-74 6 -144 25l-144 -264q-6 -8 -16.5 -29.5t-31 -48t-40.5 -26.5h-28q-24 1 -29 21q2 13 23.5 48.5t33.5 57.5l156 272q-143 46 -221.5 169t-82.5 275zM316 856q8 -239 172 -387l313 555q22 11 22 74q0 64 -14 70q0 28 -32.5 48 t-75.5 30t-68 10q-149 0 -221 -116t-96 -284z" />
<glyph unicode="&#xa3;" horiz-adv-x="1237" d="M8 176q15 92 80 138t164 46q193 0 408 -124q16 51 16 104q0 72 -33 130t-80 100t-121 95t-94 70h-219q-41 1 -45 9l3 6l1 2l12 44q4 14 31 15h141q-94 122 -100 260q4 124 72 223.5t178 154t234 54.5q108 0 200 -18q38 0 59.5 14.5t40 35.5t27.5 21q20 0 37 -48l164 -404 v-20q0 -16 -16 -19q-12 3 -32 39q-50 90 -127 170t-172 129t-194 49q-122 0 -193 -74q-72 -74 -86 -194q2 -70 39 -133t83 -108t142 -134h288h20q16 -1 16 -13v-8l-12 -28q-8 -17 -18 -21q-12 -4 -46 -4h-192q100 -100 100 -256q0 -54 -14 -108t-35 -93.5t-39 -54.5 q146 -55 248 -63q85 4 152.5 47t67.5 121q0 62 -40 106.5t-112 44.5q-18 -13 -56 -23q-34 0 -40 36q0 17 19 30.5t52 13.5q62 0 117.5 -35t87.5 -92.5t32 -119.5q0 -90 -44.5 -165.5t-120.5 -118t-166 -42.5q-87 0 -175 33.5t-142 79.5q-142 -113 -296 -113 q-74 0 -135.5 29.5t-98 78.5t-38.5 105zM60 168q0 -66 66 -111t163 -49q145 8 251 92q-194 196 -344 197q-116 0 -136 -129z" />
<glyph unicode="&#xa4;" horiz-adv-x="1237" d="M0 748q2 124 46 218t110 187l-132 135l68 64l131 -140q187 148 401 148t392 -136l139 128l65 -64l-132 -133q49 -56 82.5 -123.5t49.5 -139.5q17 -70 17 -144q1 -231 -153 -404l132 -131l-63 -65l-129 128q-210 -144 -412 -147q-204 1 -393 147l-131 -128l-64 65l132 131 q-148 194 -156 404zM100 772q0 -106 37 -204t104 -173.5t160 -120t203 -46.5q120 0 219 42t169 115.5t107 165t37 189.5q0 107 -38.5 201.5t-109 166t-166 112t-202.5 40.5q-115 0 -208.5 -40t-161.5 -109t-106 -156.5t-44 -182.5z" />
<glyph unicode="&#xa5;" horiz-adv-x="1237" d="M0 1436q6 32 60 32h540q43 0 43 -28q-1 -28 -35 -29q-60 0 -87 -18.5t-29 -56.5q4 -27 28 -99l180 -510l164 525q12 42 12 75q0 48 -29 68t-91 20q-28 1 -35 21q6 32 43 32h428q45 0 45 -28q1 -28 -53 -29q-87 0 -154.5 -50.5t-121.5 -201.5l-89 -247h242q42 0 52.5 -4 t10.5 -15l-12 -33q-4 -16 -37 -24q-5 2 -7 3t-3 1h-269l-44 -132h319q49 0 49 -16v-8l-8 -32q-8 -14 -60 -15h-317v-401q0 -76 20 -115t62.5 -52t122.5 -13q47 0 47 -32q0 -24 -47 -24h-624q-40 0 -48 28q8 28 56 28q102 0 151 32t49 144v405h-364q-38 1 -44 15q4 4 5 12 l10 28q7 16 17 16h32h308l-27 132h-301q-40 0 -48 12q3 6 5.5 10t3.5 6l14 31q1 13 21 13h28h248l-76 200q-48 125 -97 191.5t-91.5 86t-87.5 19.5h-37q-36 1 -43 27z" />
<glyph unicode="&#xa6;" horiz-adv-x="403" d="M240 43q4 24 4 88v1321q0 48 6 56t43 8h63q21 0 26 -18t5 -62v-1352q0 -54 -4.5 -69t-26.5 -15h-63q-32 0 -41.5 7t-11.5 36z" />
<glyph unicode="&#xa7;" horiz-adv-x="1237" d="M76 604q6 169 176 332q-82 80 -88 204q2 94 59.5 176t167 132.5t261.5 50.5q82 0 179 -17.5t169 -59.5t75 -109q0 -44 -31.5 -68.5t-79.5 -28.5q-82 8 -88 60q-12 80 -56 118q-44 37 -124 50q-37 4 -55 4q-80 0 -147 -34t-106 -88q-38 -56 -40 -114q8 -93 88 -141 q33 -20 258 -108q226 -89 250 -99q100 -40 157.5 -127t57.5 -192q1 -185 -159 -322q104 -97 104 -251q0 -111 -61 -214t-175.5 -166t-267.5 -63q-155 0 -269.5 41t-174.5 107.5t-60 140.5q0 26 4 38q8 37 36 60q28 22 64 24q40 0 66.5 -23t26.5 -65q0 -28 -4 -40 q-9 -24 -9 -50q0 -80 88 -127t208 -47q90 0 172 36t133 106t51 162q0 71 -46 125.5t-111 88.5q-65 36 -128 54q-166 52 -276.5 98.5t-199.5 133t-95 212.5zM252 684q2 -78 76 -134t200 -102.5t235 -86t153 -77.5q68 94 67 181q0 80 -65.5 135.5t-136 83.5t-227 84t-218.5 96 q-78 -96 -84 -180z" />
<glyph unicode="&#xa8;" horiz-adv-x="1016" d="M148 1313q3 50 39.5 86.5t96.5 36.5q56 0 90 -32q36 -32 42 -81q0 -66 -35 -111.5t-97 -47.5q-2 2 -4 3t-4 1q-60 3 -94 44.5t-34 100.5zM600 1300q0 50 36.5 91.5t90.5 44.5q65 0 103 -40t42 -92q0 -51 -40 -93.5t-92 -42.5q-62 0 -99 40t-41 92z" />
<glyph unicode="&#xa9;" horiz-adv-x="1835" d="M202 772q7 140 56.5 268t144.5 232t219 164.5t298 62.5q166 0 303 -60t219 -163.5t135 -231.5t59 -261q0 -8 1 -22.5t1 -20.5q0 -146 -50 -285t-148 -251t-224 -176q-124 -65 -300 -65q-168 0 -293 65.5t-223 181.5t-141 258t-57 304zM314 754q0 -126 38 -244t116 -213.5 t179 -151.5t250 -61q204 0 354 92t213 246q62 154 62 336q0 126 -49.5 239.5t-137.5 201.5t-188.5 138.5t-230.5 50.5q-146 -3 -263.5 -56.5t-184 -143t-110.5 -202.5q-42 -112 -48 -232zM549 754q0 114 56.5 209.5t138.5 150t196 54.5q140 0 242 -60l83 -268l-73 52 q-46 196 -232 196q-92 0 -158.5 -47t-100 -125t-33.5 -172q0 -148 60 -240.5t165 -122.5q51 -9 75 -13q77 3 139.5 39t92.5 105l82 41q-45 -110 -90.5 -158t-119 -73t-175.5 -25q-84 1 -153.5 32.5t-119.5 91.5t-62.5 144.5t-12.5 188.5z" />
<glyph unicode="&#xaa;" horiz-adv-x="1237" d="M168 637q4 7 4 15l16 32q6 10 17 11t71 1h756q43 0 43 -12q0 -2 -2 -8t-2 -8l-6 -25q-8 -13 -11.5 -16t-21.5 -7q-4 4 -24 4h-748q-88 0 -92 13zM256 987q2 72 64 128.5t166.5 87t230.5 30.5v127q0 24 -17.5 48t-46.5 39t-61 17q-54 0 -91 -22t-40 -66q10 -16 10 -59 q0 -32 -20.5 -55.5t-63.5 -24.5q-7 2 -23 2q-68 6 -75 82q5 65 55 105t120 56.5t136 16.5q76 0 138 -19.5t98 -58.5t36 -90v-350q0 -84 56 -84q43 0 55 51q7 25 21 25q24 0 24 -37q0 -102 -172 -127q-58 2 -101 38.5t-43 104.5q-32 -66 -100.5 -102t-146.5 -39 q-186 12 -209 176zM428 1016q8 -33 8 -35q28 -80 104 -84q41 0 82.5 26.5t67.5 70.5q27 44 27 94v100q-138 0 -211.5 -50.5t-77.5 -121.5z" />
<glyph unicode="&#xab;" horiz-adv-x="692" d="M28 504q4 10 23 32l252 240q21 20 61 57q4 0 4 -12q0 -11 -44 -73l-124 -240l136 -280q4 -8 42 -64q0 -1 -1 -3q-1 -3 -7 -5q-6 4 -29 25t-29 28l-252 262q-30 29 -32 33zM299 504q7 18 25 36l252 240q16 16 56 50q4 0 4 -12q0 2 -36 -66l-129 -240l137 -280 q8 -18 43 -68q0 -1 -1.5 -3.5t-6.5 -4.5q-6 4 -30 30t-25 27l-256 258q-6 6 -15 14t-12.5 11.5t-5.5 7.5z" />
<glyph unicode="&#xac;" horiz-adv-x="1292" d="M170 764v148h1038v-632h-143v484h-895z" />
<glyph unicode="&#xad;" horiz-adv-x="1536" d="M256 0v1280h1024v-1280h-1024zM289 33h958v1214h-958v-1214z" />
<glyph unicode="&#xae;" horiz-adv-x="1835" d="M199 727q0 21 4 71q15 178 104 341t235 262.5t366 101.5q170 0 313 -61.5t234 -171.5t147 -243t59 -273q0 -150 -53 -293t-152.5 -257t-227 -175.5t-292.5 -61.5q-210 0 -387 100.5t-263.5 277.5t-86.5 382zM316 750q0 -128 38 -243t100 -209t179 -150t270 -64 q158 0 282.5 60t207.5 160t114 215t31 235q0 170 -89 313t-229.5 230t-316.5 87q-185 -4 -324 -91t-199 -229t-64 -314zM553 332q85 58 94 73t9 47v613q0 36 -5 50.5t-26 19.5t-45 15l-27 34h387q136 0 206 -57t70 -150q0 -85 -54 -149q-54 -62 -175 -80v-4q56 -2 89 -49.5 t71.5 -139t72.5 -137.5t50 -62l43 -24h-113q-72 0 -107 48t-65 142t-59 140t-89 46h-92v-264q0 -44 19 -54t86 -58h-340zM788 772h109q112 0 145 58t33 143q0 86 -27.5 127.5t-99.5 44.5h-104q-32 0 -44 -20t-12 -77v-276z" />
<glyph unicode="&#xb1;" horiz-adv-x="1292" d="M80 0v152h1132v-152h-1132zM80 688v148h492v420h149v-420h487v-148h-487v-412h-149v412h-492z" />
<glyph unicode="&#xb2;" horiz-adv-x="739" d="M12 1252q2 64 42 121t122.5 93.5t204.5 36.5q85 -2 156.5 -32.5t116 -81.5t50.5 -113q0 -101 -54 -162q-54 -60 -185 -106q-66 -20 -136.5 -41t-128 -50t-95 -76t-37.5 -116q36 80 132 80q43 0 87.5 -12.5t109.5 -37.5t96 -35t75 -16q56 14 82 30t26 62q0 35 -24 64 t-60 29q-26 -1 -47 -17q-16 0 -25 25q0 23 52 23q64 0 108.5 -43t44.5 -109q0 -54 -30.5 -97t-79.5 -68t-103 -27q-86 6 -200 52q-158 64 -204 64q-36 0 -61 -49q2 -6 23.5 -17.5t25.5 -25.5q0 -20 -24 -24q-42 10 -48 57q-4 20 -4 59q0 94 51 161t121 107t180 88 q68 28 106 86t38 126q0 83 -52 142.5t-144 61.5q-98 0 -161 -52t-67 -112q4 -7 6.5 -17.5t7.5 -16.5q6 -4 23 -10q27 0 27 28q0 12 -8 37q47 -14 73.5 -48.5t26.5 -72.5t-28 -63.5t-80 -28.5q-8 4 -24 4q-45 6 -72.5 46t-31.5 94z" />
<glyph unicode="&#xb3;" horiz-adv-x="739" d="M0 801q6 53 41 90t88 37q24 -12 48.5 -39t48.5 -63q5 -32 37 -104q-20 51 -99 89q-40 1 -48 -55q46 -142 208 -148q41 8 57 8q85 20 133.5 83t48.5 157q-2 70 -39.5 112t-94.5 59t-122 17q-73 0 -79 -2q0 -4 -73 7q88 29 81 29q151 24 207.5 85t56.5 137q0 67 -47 114.5 t-121 49.5q-71 0 -130.5 -38t-61.5 -82q4 -18 16 -55t23 -50.5t11 -36.5q0 -33 -4 -40t-46 -7q-48 3 -74 33q-26 32 -29 76q2 58 41.5 114t114.5 93t179 37q78 0 145 -24.5t107 -65.5t44 -87q0 -145 -203 -207q142 0 208.5 -73t66.5 -187q-7 -112 -110 -198 q-102 -84 -306 -90q-81 0 -155.5 31.5t-120.5 83.5t-48 110z" />
<glyph unicode="&#xb4;" horiz-adv-x="780" d="M152 1057q8 26 28 47l236 240q56 62 176 97q46 0 79 -40.5t33 -88.5q0 -80 -151 -144l-344 -111q-15 -4 -22.5 -6.5t-22.5 -6.5q-6 0 -12 13z" />
<glyph unicode="&#xb5;" horiz-adv-x="1239" d="M-130 774q0 26 130 58q41 0 146 30q106 30 151 62q46 8 84 162q0 -100 4 -178v-656q0 -178 123 -184q16 4 45 4q103 24 283 137v407q0 91 -38 125.5t-106 34.5h-49q-40 0 -164 -2q8 26 154 58q80 0 177.5 27t176.5 81q16 21 62 146q-1 -118 -1 -230v-567q-4 -62 20 -165 q22 -104 96 -90q37 0 83 -34h-363q-48 0 -48 43v121q-56 -46 -105 -86.5t-87.5 -65t-78.5 -37t-90 -12.5q-33 1 -98 9q34 -186 -1 -257q-5 -72 -25 -118q-20 -45 -54 -45q-68 0 -75 50q-8 52 -8 124l-42 833q0 92 -13 138t-40 62.5t-76 16.5h-43q-34 2 -130 -2z" />
<glyph unicode="&#xb6;" horiz-adv-x="1237" d="M0 1108q0 102 51 184t150 129t239 47h764q118 0 170 1q0 -9 -79.5 -31.5t-94.5 -22.5h-41q-55 0 -86 -19.5t-46 -74.5t-15 -162v-1411q0 -64 11 -96t33 -42t56 -11t88 -3q39 0 188 -56q-78 -2 -170 0l-321 4v1804q0 33 -12.5 50t-32.5 17t-33.5 -19.5t-13.5 -55.5v-1796 h-309q-12 -6 -113 -6q105 56 113 58q50 0 67 4q46 0 71.5 9t39.5 41t14 98v992q-40 -3 -86 -6.5t-78 -6.5q-268 3 -396 108t-128 273zM276 1116q0 -166 59 -249t205 -83h148v420q0 132 -61 169.5t-152 37.5q-102 -2 -150.5 -72.5t-48.5 -222.5z" />
<glyph unicode="&#xb7;" horiz-adv-x="620" d="M206 646q3 46 40 82.5t61 31.5q58 0 86.5 -38.5t31.5 -87.5q0 -62 -39 -106t-79 -36q-60 3 -80.5 47.5t-20.5 106.5z" />
<glyph unicode="&#xb8;" horiz-adv-x="647" d="M144 -307q14 -7 40 -3q70 -12 84 -2q80 0 92 68q0 30 -21 53.5t-67 26.5q-34 -8 -34 -16v176l74 4v-129q10 2 29 4t27 4q62 0 95 -33.5t33 -81.5q0 -62 -61.5 -93t-131.5 -31q-141 0 -159 53z" />
<glyph unicode="&#xb9;" horiz-adv-x="739" d="M17 1342q0 20 75 34q196 18 320 100q23 25 45 69q4 -55 4 -73v-36v-580q0 -108 9.5 -148t50.5 -55.5t147 -15.5q24 -1 24 -17t-16 -16h-600q-20 0 -29 16q7 16 25 17h65q62 0 95 11t52 54.5t19 137.5v360q0 70 -4 96t-20.5 37t-59.5 11h-127q-16 2 -75 -2z" />
<glyph unicode="&#xba;" horiz-adv-x="1237" d="M164 633q8 16 8 14l16 37q6 12 21 12h14h813q34 0 35 -16v-12l-10 -31q-8 -13 -37 -13h-815q-38 0 -45 9zM260 1164l3 7.5t1 4.5q4 145 101 236t263 91q107 0 186.5 -49.5t121.5 -129.5t45 -171q0 -84 -44.5 -163.5t-125.5 -129t-183 -49.5q-116 0 -198.5 49.5 t-125 130.5t-44.5 173zM432 1164q0 -302 192 -308q98 0 139.5 89t41.5 223q-7 290 -177 296q-97 0 -146 -80q-50 -80 -50 -220z" />
<glyph unicode="&#xbb;" horiz-adv-x="692" d="M76 811q0 8 8 8q10 0 24 -10l256 -264q22 -22 23 -37q-1 -14 -15 -29l-251 -243q-10 -10 -33 -21l-8 8q2 5 8 21l8 20l127 240l-135 284q-9 18 -12 23zM352 811q0 8 8 8q11 0 25 -10l252 -260q27 -30 27 -37q0 -12 -21 -33l-252 -239q-9 -9 -31 -21q-4 1 -4 9q8 26 16 40 l124 240l-136 280q-2 4 -4 12t-4 11z" />
<glyph unicode="&#xbc;" horiz-adv-x="1855" d="M-54 1351q58 19 78 25q196 18 320 100q30 18 41 19q6 -1 6 -23v-36v-580q0 -108 9.5 -148t51.5 -55.5t148 -15.5q28 -9 58 -27q-38 -4 -50 -6h-600q-13 -1 -57 3q58 29 53 30h66q62 0 95 11t52 54.5t19 137.5v360q0 70 -4 96t-21 37t-59 11h-128q6 4 -78 7zM500 16 q3 12 15.5 32t12.5 24l732 1352q16 37 30.5 58t40.5 21h53q26 0 27 -18q0 -22 -10 -37l-760 -1407q-14 -27 -24 -34q-9 -7 -37 -7h-48q-26 0 -32 16zM1052 268q10 18 19 29q56 60 108 130t107.5 235.5t99.5 403.5q22 -104 38 -163q0 -144 -76 -287q-76 -144 -193 -264 q24 4 84 4q71 0 233 -24v217q0 50 -5 85.5t-11 52.5t-8 21q6 12 20 17q143 194 150.5 201t9.5 -283v-331q29 0 43 -5q100 5 158 25q21 12 35 12q8 0 8 -12q0 -37 -18 -59t-45.5 -32t-60 -14.5t-64.5 -7.5q-18 4 -56 4v-59q0 -78 38 -104q38 -27 110 -27q38 -17 72 -33 q-48 -4 -76 0h-468q-16 1 -48 5q55 29 57 28q159 1 159 111v96q-152 32 -292 32q-84 0 -115 -12q-5 0 -13 8z" />
<glyph unicode="&#xbd;" horiz-adv-x="1855" d="M-42 604q0 16 54 33h68q64 0 97 11t52 54.5t19 137.5v360q0 70 -4 96t-22 37t-62 11h-127q-51 0 -73 -5q0 19 73 37q199 18 323 100q30 18 35 19q13 1 13 -59v-580q0 -108 9 -148t51 -55.5t148 -15.5q24 1 66 -27q0 -16 -62 -6h-600h-58zM496 16q2 12 13 32t11 24 l732 1352q34 80 71 79h53q28 0 29 -18q-1 -20 -13 -37l-759 -1407q-12 -26 -22 -33q-9 -8 -35 -8h-48q-28 0 -32 16zM1153 633q2 103 92.5 179.5t274.5 76.5q126 -3 221 -69t102 -160q0 -98 -54.5 -160t-184.5 -109q-68 -20 -138 -40.5t-128 -49.5t-96 -76t-38 -117 q36 80 132 80q45 0 89.5 -12t113.5 -38.5t96.5 -35.5t72.5 -14q104 19 104 92q0 32 -23 64t-57 32q-12 0 -75 4q0 22 51 23q65 0 110 -42q46 -41 46 -109q0 -78 -68 -133.5t-148 -55.5q-48 0 -92 14t-108 41.5t-111 42.5t-94 15q-23 0 -32 -11t-23 -37q-8 -23 -34 -28 q-6 32 3 80q0 133 91.5 206.5t259.5 145.5q48 19 80 52t48 74.5t16 84.5q0 85 -52 143.5t-144 61.5q-66 0 -117 -26t-79 -65t-31 -77q2 -3 5.5 -14.5t24.5 -52.5t35 -45q28 0 -2 100q0 10 -8 36q46 -14 73 -48t27 -72t-28 -64t-80 -28q-8 4 -24 4q-44 6 -71 45t-28 92z" />
<glyph unicode="&#xbe;" horiz-adv-x="1855" d="M-12 801q0 54 35 90.5t89 36.5q32 0 59 -11t44 -33t17 -56t8 -132q-20 51 -88 115q-42 1 -48 -55q44 -142 203 -148q41 8 57 8q88 20 136.5 82t48.5 158q0 100 -74 144t-178 44h-141q18 4 180 84q162 78 152 172q0 67 -47 114.5t-121 49.5q-48 0 -92 -19t-71 -49 q-27 -28 -28 -56q4 -16 -8.5 -38.5t9 -35t32 -24.5t10.5 -34q0 -32 -2 -42.5t-45 -10.5q-48 3 -74.5 33t-30.5 76q2 56 41.5 112t116.5 94q76 38 182 38q119 0 202.5 -53t89.5 -124q0 -149 -204 -207q144 0 211.5 -73t67.5 -187q-4 -70 -47.5 -134t-135.5 -108 q-92 -42 -232 -46q-82 0 -158.5 32.5t-121 85t-44.5 107.5zM496 16q2 10 15 31t13 25l732 1352q34 80 71 79h53q28 0 29 -18q-1 -20 -13 -37l-759 -1407q-14 -27 -23.5 -34t-33.5 -7h-48q-32 0 -36 16zM1044 264q2 5 8 12t13 17q56 58 108.5 128.5t98.5 184.5q45 114 88 358 q36 0 45.5 -14t9.5 -51q0 -97 -36.5 -196t-97.5 -189.5t-132 -165.5q50 8 94 8q105 0 221 -28v217q0 95 -20 159q6 12 20 17l152 234q1 1 4 -643q46 0 60 -5q34 2 60.5 5.5t50 8.5t29.5 7q22 12 36 12q8 0 8 -12q0 -64 -48 -84q-46 -19 -136 -29q-22 4 -60 4v-55 q0 -80 38 -106q40 -25 114 -25q46 -2 62 -33q-41 -3 -67 -4h-471q-42 2 -64 8q74 20 76 24q156 0 156 112v96q-152 32 -292 32q-84 0 -115 -12q-5 0 -13 8z" />
<glyph unicode="&#xbf;" horiz-adv-x="1237" d="M129 -200q4 96 50.5 184.5t92.5 140.5q68 38 170 75.5t136.5 52.5t59.5 51q26 38 26 108v168q0 44 24 44q29 0 29 -40v-207q0 -64 -37 -112.5t-115 -113.5t-119.5 -110t-60.5 -109q-19 -80 -25 -145q2 -99 45 -170t116.5 -108t166.5 -37q144 7 244 96.5t100 235.5 q-3 32 -28 96q-26 62 -52 66q-42 0 -40 -146q8 -25 8 -35q-107 24 -111 131q2 58 42.5 107t92.5 49q94 0 147.5 -65t53.5 -167q0 -103 -59 -201.5t-181.5 -162.5t-300.5 -64q-130 0 -234.5 38t-151 102t-72.5 148q-10 35 -17 100zM572 790q0 56 33 100t67 50q66 0 95 -46.5 t29 -101.5q0 -56 -36 -92.5t-76 -27.5q-58 0 -84 33.5t-28 84.5z" />
<glyph unicode="&#xc0;" horiz-adv-x="1460" d="M-113 0q-12 14 24.5 29t89.5 34t105 50t81 98t81 176l332 885q-2 -7 61 118q65 118 105 184q59 -147 49 -118l405 -1128q48 -129 91 -187.5t80 -78.5t106 -20q66 -26 72 -44q-353 6 -823 0q5 22 67 44q24 0 111.5 29t87.5 97q0 48 -25 121l-90 260h-506l-59 -164 q-36 -97 -43 -185q3 -83 40 -116.5t127 -45.5q40 -22 48 -36q-97 -2 -617 -2zM408 600h468l-235 637zM484 1817q8 50 35.5 89.5t76.5 39.5q60 1 116 -61l236 -240q48 -48 68 -76q-23 -5 -56.5 10.5t-39.5 17.5l-344 116q-84 28 -92 104z" />
<glyph unicode="&#xc1;" horiz-adv-x="1460" d="M-113 0q-12 14 24.5 29t89.5 34t105 50t81 98t81 176l332 885q-2 -7 61 118q65 118 105 184q59 -147 49 -118l405 -1128q48 -129 91 -187.5t80 -78.5t106 -20q66 -26 72 -44q-353 6 -823 0q5 22 67 44q24 0 111.5 29t87.5 97q0 48 -25 121l-90 260h-506l-59 -164 q-36 -97 -43 -185q3 -83 40 -116.5t127 -45.5q40 -22 48 -36q-97 -2 -617 -2zM408 600h468l-235 637zM484 1597q8 26 28 47l236 240q56 62 176 97q46 0 79 -40.5t33 -88.5q0 -80 -151 -144l-344 -111q-15 -4 -22.5 -6.5t-22.5 -6.5q-6 0 -12 13z" />
<glyph unicode="&#xc2;" horiz-adv-x="1460" d="M-113 0q-12 14 24.5 29t89.5 34t105 50t81 98t81 176l332 885q-2 -7 61 118q65 118 105 184q59 -147 49 -118l405 -1128q48 -129 91 -187.5t80 -78.5t106 -20q66 -26 72 -44q-353 6 -823 0q5 22 67 44q24 0 111.5 29t87.5 97q0 48 -25 121l-90 260h-506l-59 -164 q-36 -97 -43 -185q3 -83 40 -116.5t127 -45.5q40 -22 48 -36q-97 -2 -617 -2zM280 1551q34 42 68 78l340 336q29 28 41 28q14 0 43 -28l344 -345q30 -31 58 -71q-54 20 -86 44l-357 208l-350 -199q-31 -19 -101 -51zM408 600h468l-235 637z" />
<glyph unicode="&#xc3;" horiz-adv-x="1460" d="M-113 0q-12 14 24.5 29t89.5 34t105 50t81 98t81 176l332 885q-2 -7 61 118q65 118 105 184q59 -147 49 -118l405 -1128q48 -129 91 -187.5t80 -78.5t106 -20q66 -26 72 -44q-353 6 -823 0q5 22 67 44q24 0 111.5 29t87.5 97q0 48 -25 121l-90 260h-506l-59 -164 q-36 -97 -43 -185q3 -83 40 -116.5t127 -45.5q40 -22 48 -36q-97 -2 -617 -2zM408 600h468l-235 637zM424 1713q2 8 6.5 22.5t5.5 17.5q25 55 79.5 95.5t112.5 40.5q39 -3 84.5 -20.5t93.5 -35.5q48 -16 86 -20q68 8 105 72q9 16 19 16q16 0 16 -39q-8 -83 -79.5 -139 t-156.5 -66q-30 4 -57 14t-73 31t-80 32q-32 11 -66 11q-20 0 -48 -23t-36 -28q-6 1 -12 19z" />
<glyph unicode="&#xc4;" horiz-adv-x="1460" d="M-113 0q-12 14 24.5 29t89.5 34t105 50t81 98t81 176l332 885q-2 -7 61 118q65 118 105 184q59 -147 49 -118l405 -1128q48 -129 91 -187.5t80 -78.5t106 -20q66 -26 72 -44q-353 6 -823 0q5 22 67 44q24 0 111.5 29t87.5 97q0 48 -25 121l-90 260h-506l-59 -164 q-36 -97 -43 -185q3 -83 40 -116.5t127 -45.5q40 -22 48 -36q-97 -2 -617 -2zM367 1858q3 50 39.5 86.5t96.5 36.5q56 0 90 -32q36 -32 42 -81q0 -66 -35 -111.5t-97 -47.5q-2 2 -4 3t-4 1q-60 3 -94 44.5t-34 100.5zM408 600h468l-235 637zM819 1845q0 50 36.5 91.5 t90.5 44.5q65 0 103 -40t42 -92q0 -51 -40 -93.5t-92 -42.5q-62 0 -99 40t-41 92z" />
<glyph unicode="&#xc5;" horiz-adv-x="1460" d="M-113 0q-12 14 24.5 29t89.5 34t105 50t81 98t81 176l332 885q-2 -7 61 118q65 118 105 184q59 -147 49 -118l405 -1128q48 -129 91 -187.5t80 -78.5t106 -20q66 -26 72 -44q-353 6 -823 0q5 22 67 44q24 0 111.5 29t87.5 97q0 48 -25 121l-90 260h-506l-59 -164 q-36 -97 -43 -185q3 -83 40 -116.5t127 -45.5q40 -22 48 -36q-97 -2 -617 -2zM408 600h468l-235 637zM564 1825q4 8 4 16q3 61 47.5 108.5t116.5 47.5q46 0 82 -23t56 -59t21 -70q0 -68 -42 -120q-41 -52 -113 -52q-70 0 -120 45t-52 107zM635 1833q0 -34 27.5 -61t64.5 -27 q44 0 68.5 26t24.5 66q0 36 -28.5 62t-68.5 26q-32 0 -58.5 -28t-29.5 -64z" />
<glyph unicode="&#xc6;" horiz-adv-x="2244" d="M-179 4q1 22 63 47q50 0 132.5 51.5t183 151.5t200.5 238l667 919q24 36 39.5 46.5t38.5 10.5h27h448q46 0 72 -4q108 4 207 -37t115 -2q0 43 -38 154q26 0 60 -76l190 -495q-27 8 -86 112q-62 124 -228 207.5t-368 83.5q-221 0 -221 -207v-393h264q94 0 153.5 35 t89.5 38.5t58 291.5q18 -92 16 -101l6 -666q-28 9 -45 183t-273 168h-269v-488q0 -100 44.5 -147t114 -58t189.5 -11q110 0 208 36t189.5 120.5t167.5 219.5q12 28 66 96q16 0 -250 -624q-24 -54 -59 -116q-17 0 -17 116q-22 96 -311 96l-903 -2q8 28 68 42q28 0 50 11 q60 3 105.5 20t76 69t30.5 153v467h-428l-212 -291q-126 -173 -132 -281q4 -138 229 -137q39 0 59 -47h-787zM692 811h400v557z" />
<glyph unicode="&#xc7;" horiz-adv-x="1493" d="M51 764q6 143 56.5 273.5t144 234t226.5 164.5t294 63q86 0 194 -15q108 -16 118 -16q42 3 92 -38.5t58 -7.5q12 41 -34 151q22 1 39 -57l172 -432l49 -136q-28 10 -104 132q-34 88 -120 175t-198.5 142t-222.5 55q-192 -4 -331 -168q-138 -163 -156 -520q-2 -24 -2 -74 q0 -178 41 -309t114 -210t168 -116t207 -39l9 3l3 1q208 0 338 93t214 264q13 30 56 181q16 0 -8 -173q0 -11 -8 -33q-34 -73 -76 -136.5t-110 -120.5t-173 -93.5t-251 -36.5q-56 1 -115 7v-97q9 2 23 3q14 2 26 6q66 0 103 -35t37 -77q0 -65 -64 -98.5t-135 -33.5 q-139 0 -157 48q0 12 20 19q21 -19 96 -19q49 0 102 16t53 44q-7 68 -139 88q-41 -8 -57 -12v164q-134 19 -243.5 88.5t-188 177t-119.5 239t-41 271.5z" />
<glyph unicode="&#xc8;" horiz-adv-x="1460" d="M10 1472q224 -12 942 -4q99 0 153.5 4.5t68.5 33.5q3 38 -34 106q86 -106 84 -100l152 -380q0 -4 17 -86q-13 26 -53 80q-60 90 -148.5 153t-199.5 97t-224 35q-124 0 -173.5 -50t-49.5 -161v-389h203q92 0 156 15t118 66.5t58 163.5q26 58 30 104v-773q0 14 -31 86 q-6 168 -99.5 227.5t-231.5 59.5h-203v-457q0 -133 61 -191.5t209 -58.5q8 0 22.5 1.5t26.5 1.5q111 4 215.5 46.5t196.5 121.5q92 80 156 184q14 23 32 57q46 77 16 -25q0 -8 -8 -32l-233 -524q-19 -44 -83 -136q20 80 38 134q18 77 -47.5 105.5t-337.5 12.5l-795 -2 q-4 50 42 58q58 2 100 4.5t75.5 25.5t54.5 94.5t21 210.5v721q0 128 -24.5 193.5t-62.5 85.5t-95 20h-69q-38 33 -46 61zM484 1817q8 50 35.5 89.5t76.5 39.5q60 1 116 -61l236 -240q48 -48 68 -76q-23 -5 -56.5 10.5t-39.5 17.5l-344 116q-84 28 -92 104z" />
<glyph unicode="&#xc9;" horiz-adv-x="1460" d="M10 1472q224 -12 942 -4q99 0 153.5 4.5t68.5 33.5q3 38 -34 106q86 -106 84 -100l152 -380q0 -4 17 -86q-13 26 -53 80q-60 90 -148.5 153t-199.5 97t-224 35q-124 0 -173.5 -50t-49.5 -161v-389h203q92 0 156 15t118 66.5t58 163.5q26 58 30 104v-773q0 14 -31 86 q-6 168 -99.5 227.5t-231.5 59.5h-203v-457q0 -133 61 -191.5t209 -58.5q8 0 22.5 1.5t26.5 1.5q111 4 215.5 46.5t196.5 121.5q92 80 156 184q14 23 32 57q46 77 16 -25q0 -8 -8 -32l-233 -524q-19 -44 -83 -136q20 80 38 134q18 77 -47.5 105.5t-337.5 12.5l-795 -2 q-4 50 42 58q58 2 100 4.5t75.5 25.5t54.5 94.5t21 210.5v721q0 128 -24.5 193.5t-62.5 85.5t-95 20h-69q-38 33 -46 61zM488 1602q8 26 28 47l236 240q56 62 176 97q46 0 79 -40.5t33 -88.5q0 -80 -151 -144l-344 -111q-15 -4 -22.5 -6.5t-22.5 -6.5q-6 0 -12 13z" />
<glyph unicode="&#xca;" horiz-adv-x="1460" d="M10 1472q224 -12 942 -4q99 0 153.5 4.5t68.5 33.5q3 38 -34 106q86 -106 84 -100l152 -380q0 -4 17 -86q-13 26 -53 80q-60 90 -148.5 153t-199.5 97t-224 35q-124 0 -173.5 -50t-49.5 -161v-389h203q92 0 156 15t118 66.5t58 163.5q26 58 30 104v-773q0 14 -31 86 q-6 168 -99.5 227.5t-231.5 59.5h-203v-457q0 -133 61 -191.5t209 -58.5q8 0 22.5 1.5t26.5 1.5q111 4 215.5 46.5t196.5 121.5q92 80 156 184q14 23 32 57q46 77 16 -25q0 -8 -8 -32l-233 -524q-19 -44 -83 -136q20 80 38 134q18 77 -47.5 105.5t-337.5 12.5l-795 -2 q-4 50 42 58q58 2 100 4.5t75.5 25.5t54.5 94.5t21 210.5v721q0 128 -24.5 193.5t-62.5 85.5t-95 20h-69q-38 33 -46 61zM284 1551q34 42 68 78l340 336q29 28 41 28q14 0 43 -28l344 -345q30 -31 58 -71q-54 20 -86 44l-357 208l-350 -199q-31 -19 -101 -51z" />
<glyph unicode="&#xcb;" horiz-adv-x="1460" d="M10 1472q224 -12 942 -4q99 0 153.5 4.5t68.5 33.5q3 38 -34 106q86 -106 84 -100l152 -380q0 -4 17 -86q-13 26 -53 80q-60 90 -148.5 153t-199.5 97t-224 35q-124 0 -173.5 -50t-49.5 -161v-389h203q92 0 156 15t118 66.5t58 163.5q26 58 30 104v-773q0 14 -31 86 q-6 168 -99.5 227.5t-231.5 59.5h-203v-457q0 -133 61 -191.5t209 -58.5q8 0 22.5 1.5t26.5 1.5q111 4 215.5 46.5t196.5 121.5q92 80 156 184q14 23 32 57q46 77 16 -25q0 -8 -8 -32l-233 -524q-19 -44 -83 -136q20 80 38 134q18 77 -47.5 105.5t-337.5 12.5l-795 -2 q-4 50 42 58q58 2 100 4.5t75.5 25.5t54.5 94.5t21 210.5v721q0 128 -24.5 193.5t-62.5 85.5t-95 20h-69q-38 33 -46 61zM371 1858q3 50 39.5 86.5t96.5 36.5q56 0 90 -32q36 -32 42 -81q0 -66 -35 -111.5t-97 -47.5q-2 2 -4 3t-4 1q-60 3 -94 44.5t-34 100.5zM823 1845 q0 50 36.5 91.5t90.5 44.5q65 0 103 -40t42 -92q0 -51 -40 -93.5t-92 -42.5q-62 0 -99 40t-41 92z" />
<glyph unicode="&#xcc;" horiz-adv-x="907" d="M20 1470q202 -2 867 -3q0 -24 -68 -52q-88 0 -137.5 -13.5t-79.5 -71.5t-30 -181v-842q0 -106 29.5 -161t83 -72.5t128.5 -26.5q22 -2 45.5 -17t20.5 -27q-121 -2 -846 -3q16 14 47 42q102 0 153.5 27t77 84t25.5 167v788q0 187 -47 245t-133 58h-68q-60 34 -68 59z M208 1817q8 50 35.5 89.5t76.5 39.5q60 1 116 -61l236 -240q48 -48 68 -76q-23 -5 -56.5 10.5t-39.5 17.5l-344 116q-84 28 -92 104z" />
<glyph unicode="&#xcd;" horiz-adv-x="907" d="M20 1470q202 -2 867 -3q0 -24 -68 -52q-88 0 -137.5 -13.5t-79.5 -71.5t-30 -181v-842q0 -106 29.5 -161t83 -72.5t128.5 -26.5q22 -2 45.5 -17t20.5 -27q-121 -2 -846 -3q16 14 47 42q102 0 153.5 27t77 84t25.5 167v788q0 187 -47 245t-133 58h-68q-60 34 -68 59z M212 1602q8 26 28 47l236 240q56 62 176 97q46 0 79 -40.5t33 -88.5q0 -80 -151 -144l-344 -111q-15 -4 -22.5 -6.5t-22.5 -6.5q-6 0 -12 13z" />
<glyph unicode="&#xce;" horiz-adv-x="907" d="M8 1551q34 42 68 78l340 336q29 28 41 28q14 0 43 -28l344 -345q30 -31 58 -71q-54 20 -86 44l-357 208l-350 -199q-31 -19 -101 -51zM20 1470q202 -2 867 -3q0 -24 -68 -52q-88 0 -137.5 -13.5t-79.5 -71.5t-30 -181v-842q0 -106 29.5 -161t83 -72.5t128.5 -26.5 q22 -2 45.5 -17t20.5 -27q-121 -2 -846 -3q16 14 47 42q102 0 153.5 27t77 84t25.5 167v788q0 187 -47 245t-133 58h-68q-60 34 -68 59z" />
<glyph unicode="&#xcf;" horiz-adv-x="907" d="M20 1470q202 -2 867 -3q0 -24 -68 -52q-88 0 -137.5 -13.5t-79.5 -71.5t-30 -181v-842q0 -106 29.5 -161t83 -72.5t128.5 -26.5q22 -2 45.5 -17t20.5 -27q-121 -2 -846 -3q16 14 47 42q102 0 153.5 27t77 84t25.5 167v788q0 187 -47 245t-133 58h-68q-60 34 -68 59z M97 1858q3 50 39.5 86.5t96.5 36.5q56 0 90 -32q36 -32 42 -81q0 -66 -35 -111.5t-97 -47.5q-2 2 -4 3t-4 1q-60 3 -94 44.5t-34 100.5zM549 1845q0 50 36.5 91.5t90.5 44.5q65 0 103 -40t42 -92q0 -51 -40 -93.5t-92 -42.5q-62 0 -99 40t-41 92z" />
<glyph unicode="&#xd0;" horiz-adv-x="1712" d="M-34 -2q6 32 110 34q29 0 105.5 31t105.5 87q29 58 29 170v407l-286 -3q-18 0 -22 13q2 2 3 4.5t1 3.5l10 37q8 16 33 16l261 3v352q0 103 -23 158t-78 77.5t-155 22.5q-34 0 -80 55q150 -6 928 2q182 0 325 -59t238 -159.5t144 -228t50 -265.5q0 -158 -48.5 -295 t-144.5 -241t-237 -162t-319 -58h-856q-40 0 -94 -2zM553 340q0 -132 21 -187.5t85 -74t217 -22.5q174 0 290 72.5t197 224.5t81 384v37q-2 156 -33 274t-124 200t-202 124.5t-261 42.5q-94 0 -150 -15.5t-88 -69.5q-33 -52 -33 -162v-367l390 5q12 0 12 -20v-12l-8 -21 q-2 -4 -4 -9.5t-6.5 -8.5t-14.5 -3l-369 -5v-387z" />
<glyph unicode="&#xd1;" horiz-adv-x="1569" d="M0 5q6 31 51 51q61 0 112 26t90.5 132t39.5 318v816q-39 64 -201 63h-28q-54 34 -62 63q60 -5 514 -1q50 -42 64 -62q3 -9 12 -27l692 -1095v711q0 178 -27 268t-69 116.5t-100 26.5l-49 14q-65 16 -69 44q194 -5 659 3q-7 -19 -57 -47q-143 0 -189.5 -108t-46.5 -301 l8 -1018q-36 0 -104 2q-16 0 -892 1321v-846q0 -188 34 -280t89 -115.5t145 -23.5q78 -24 79 -56q-700 -8 -695 5zM484 1713q2 8 6.5 22.5t5.5 17.5q25 55 79.5 95.5t112.5 40.5q39 -3 84.5 -20.5t93.5 -35.5q48 -16 86 -20q68 8 105 72q9 16 19 16q16 0 16 -39 q-8 -83 -79.5 -139t-156.5 -66q-30 4 -57 14t-73 31t-80 32q-32 11 -66 11q-20 0 -48 -23t-36 -28q-6 1 -12 19z" />
<glyph unicode="&#xd2;" horiz-adv-x="1599" d="M56 744q4 189 86 358.5t243 279t387 117.5q8 0 25 1t24 1q167 0 298 -56.5t221.5 -155t143.5 -229.5q52 -132 64 -276q4 -50 4 -74q0 -143 -47 -275.5t-142 -238.5t-237 -167.5t-321 -61.5h-49q-171 11 -303.5 77t-220.5 174t-132 243t-44 283zM231 752 q0 -181 46.5 -332.5t151.5 -244.5t359 -159q133 2 225.5 43.5t173.5 131t109 227.5t28 332v65q-6 306 -153 471.5t-391 165.5q-161 -1 -279.5 -101t-176.5 -211q-58 -110 -91 -306q-2 -26 -2 -82zM556 1817q8 50 35.5 89.5t76.5 39.5q60 1 116 -61l236 -240q48 -48 68 -76 q-23 -5 -56.5 10.5t-39.5 17.5l-344 116q-84 28 -92 104z" />
<glyph unicode="&#xd3;" horiz-adv-x="1599" d="M56 744q4 189 86 358.5t243 279t387 117.5q8 0 25 1t24 1q167 0 298 -56.5t221.5 -155t143.5 -229.5q52 -132 64 -276q4 -50 4 -74q0 -143 -47 -275.5t-142 -238.5t-237 -167.5t-321 -61.5h-49q-171 11 -303.5 77t-220.5 174t-132 243t-44 283zM231 752 q0 -181 46.5 -332.5t151.5 -244.5t359 -159q133 2 225.5 43.5t173.5 131t109 227.5t28 332v65q-6 306 -153 471.5t-391 165.5q-161 -1 -279.5 -101t-176.5 -211q-58 -110 -91 -306q-2 -26 -2 -82zM556 1597q8 26 28 47l236 240q56 62 176 97q46 0 79 -40.5t33 -88.5 q0 -80 -151 -144l-344 -111q-15 -4 -22.5 -6.5t-22.5 -6.5q-6 0 -12 13z" />
<glyph unicode="&#xd4;" horiz-adv-x="1599" d="M56 744q4 189 86 358.5t243 279t387 117.5q8 0 25 1t24 1q167 0 298 -56.5t221.5 -155t143.5 -229.5q52 -132 64 -276q4 -50 4 -74q0 -143 -47 -275.5t-142 -238.5t-237 -167.5t-321 -61.5h-49q-171 11 -303.5 77t-220.5 174t-132 243t-44 283zM231 752 q0 -181 46.5 -332.5t151.5 -244.5t359 -159q133 2 225.5 43.5t173.5 131t109 227.5t28 332v65q-6 306 -153 471.5t-391 165.5q-161 -1 -279.5 -101t-176.5 -211q-58 -110 -91 -306q-2 -26 -2 -82zM356 1551q34 42 68 78l340 336q29 28 41 28q14 0 43 -28l344 -345 q30 -31 58 -71q-54 20 -86 44l-357 208l-350 -199q-31 -19 -101 -51z" />
<glyph unicode="&#xd5;" horiz-adv-x="1599" d="M56 744q4 189 86 358.5t243 279t387 117.5q8 0 25 1t24 1q167 0 298 -56.5t221.5 -155t143.5 -229.5q52 -132 64 -276q4 -50 4 -74q0 -143 -47 -275.5t-142 -238.5t-237 -167.5t-321 -61.5h-49q-171 11 -303.5 77t-220.5 174t-132 243t-44 283zM231 752 q0 -181 46.5 -332.5t151.5 -244.5t359 -159q133 2 225.5 43.5t173.5 131t109 227.5t28 332v65q-6 306 -153 471.5t-391 165.5q-161 -1 -279.5 -101t-176.5 -211q-58 -110 -91 -306q-2 -26 -2 -82zM500 1713q2 8 6.5 22.5t5.5 17.5q25 55 79.5 95.5t112.5 40.5 q39 -3 84.5 -20.5t93.5 -35.5q48 -16 86 -20q68 8 105 72q9 16 19 16q16 0 16 -39q-8 -83 -79.5 -139t-156.5 -66q-30 4 -57 14t-73 31t-80 32q-32 11 -66 11q-20 0 -48 -23t-36 -28q-6 1 -12 19z" />
<glyph unicode="&#xd6;" horiz-adv-x="1599" d="M56 744q4 189 86 358.5t243 279t387 117.5q8 0 25 1t24 1q167 0 298 -56.5t221.5 -155t143.5 -229.5q52 -132 64 -276q4 -50 4 -74q0 -143 -47 -275.5t-142 -238.5t-237 -167.5t-321 -61.5h-49q-171 11 -303.5 77t-220.5 174t-132 243t-44 283zM231 752 q0 -181 46.5 -332.5t151.5 -244.5t359 -159q133 2 225.5 43.5t173.5 131t109 227.5t28 332v65q-6 306 -153 471.5t-391 165.5q-161 -1 -279.5 -101t-176.5 -211q-58 -110 -91 -306q-2 -26 -2 -82zM437 1858q3 50 39.5 86.5t96.5 36.5q56 0 90 -32q36 -32 42 -81 q0 -66 -35 -111.5t-97 -47.5q-2 2 -4 3t-4 1q-60 3 -94 44.5t-34 100.5zM889 1845q0 50 36.5 91.5t90.5 44.5q65 0 103 -40t42 -92q0 -51 -40 -93.5t-92 -42.5q-62 0 -99 40t-41 92z" />
<glyph unicode="&#xd8;" horiz-adv-x="1599" d="M114 745q6 199 82 348q58 119 123.5 211.5t196.5 145.5q130 53 276 53q190 1 376 -83l61 116q12 26 47.5 84t57.5 58l44 4q36 0 36 -14q0 -10 -74 -152l-84 -144q94 -72 129.5 -185t69 -233t33.5 -246q0 -148 -50 -287q-34 -100 -96 -187.5t-118 -142.5t-166 -91.5 t-234 -36.5q-160 0 -353 70l-112 -179q-16 -42 -51 -42h-50q-30 0 -34 17q0 2 75 120l86 135q-108 74 -149.5 180t-80.5 229t-41 252zM320 725q6 -347 128 -537l672 1152q-130 116 -305 116q-118 0 -224.5 -62t-178.5 -194q-70 -132 -84 -328q0 -46 -8 -147zM520 104 q107 -86 285 -92q98 2 187.5 40t155.5 115t95 193q37 158 37 348q0 177 -27.5 328.5t-76.5 215.5z" />
<glyph unicode="&#xd9;" horiz-adv-x="1599" d="M-63 1470q73 -2 905 -3q-2 -16 -59 -44q-107 -2 -150.5 -11.5t-81 -38.5t-57 -101t-19.5 -201v-694q0 -140 47.5 -217.5t134.5 -107.5t219 -32q444 0 445 371v600q0 180 -31.5 271.5t-86 124.5t-148.5 33q-44 32 -55 52q68 -2 632 -4q12 0 44 -1q-3 -16 -55 -44 q-64 -2 -95 -12.5t-67.5 -46t-59.5 -122t-23 -234.5v-564q0 -138 -31 -228.5t-92 -143.5t-149 -77t-215 -28h-70q-126 0 -227.5 16.5t-180.5 62t-123 130.5t-44 215v721q0 130 -26 195.5t-68 84.5t-107 19l-55 12q-50 18 -51 47zM556 1817q8 50 35.5 89.5t76.5 39.5 q60 1 116 -61l236 -240q48 -48 68 -76q-23 -5 -56.5 10.5t-39.5 17.5l-344 116q-84 28 -92 104z" />
<glyph unicode="&#xda;" horiz-adv-x="1599" d="M-63 1470q73 -2 905 -3q-2 -16 -59 -44q-107 -2 -150.5 -11.5t-81 -38.5t-57 -101t-19.5 -201v-694q0 -140 47.5 -217.5t134.5 -107.5t219 -32q444 0 445 371v600q0 180 -31.5 271.5t-86 124.5t-148.5 33q-44 32 -55 52q68 -2 632 -4q12 0 44 -1q-3 -16 -55 -44 q-64 -2 -95 -12.5t-67.5 -46t-59.5 -122t-23 -234.5v-564q0 -138 -31 -228.5t-92 -143.5t-149 -77t-215 -28h-70q-126 0 -227.5 16.5t-180.5 62t-123 130.5t-44 215v721q0 130 -26 195.5t-68 84.5t-107 19l-55 12q-50 18 -51 47zM556 1602q8 26 28 47l236 240q56 62 176 97 q46 0 79 -40.5t33 -88.5q0 -80 -151 -144l-344 -111q-15 -4 -22.5 -6.5t-22.5 -6.5q-6 0 -12 13z" />
<glyph unicode="&#xdb;" horiz-adv-x="1599" d="M-63 1470q73 -2 905 -3q-2 -16 -59 -44q-107 -2 -150.5 -11.5t-81 -38.5t-57 -101t-19.5 -201v-694q0 -140 47.5 -217.5t134.5 -107.5t219 -32q444 0 445 371v600q0 180 -31.5 271.5t-86 124.5t-148.5 33q-44 32 -55 52q68 -2 632 -4q12 0 44 -1q-3 -16 -55 -44 q-64 -2 -95 -12.5t-67.5 -46t-59.5 -122t-23 -234.5v-564q0 -138 -31 -228.5t-92 -143.5t-149 -77t-215 -28h-70q-126 0 -227.5 16.5t-180.5 62t-123 130.5t-44 215v721q0 130 -26 195.5t-68 84.5t-107 19l-55 12q-50 18 -51 47zM352 1551q34 42 68 78l340 336q29 28 41 28 q14 0 43 -28l344 -345q30 -31 58 -71q-54 20 -86 44l-357 208l-350 -199q-31 -19 -101 -51z" />
<glyph unicode="&#xdc;" horiz-adv-x="1599" d="M-63 1470q73 -2 905 -3q-2 -16 -59 -44q-107 -2 -150.5 -11.5t-81 -38.5t-57 -101t-19.5 -201v-694q0 -140 47.5 -217.5t134.5 -107.5t219 -32q444 0 445 371v600q0 180 -31.5 271.5t-86 124.5t-148.5 33q-44 32 -55 52q68 -2 632 -4q12 0 44 -1q-3 -16 -55 -44 q-64 -2 -95 -12.5t-67.5 -46t-59.5 -122t-23 -234.5v-564q0 -138 -31 -228.5t-92 -143.5t-149 -77t-215 -28h-70q-126 0 -227.5 16.5t-180.5 62t-123 130.5t-44 215v721q0 130 -26 195.5t-68 84.5t-107 19l-55 12q-50 18 -51 47zM441 1858q3 50 39.5 86.5t96.5 36.5 q56 0 90 -32q36 -32 42 -81q0 -66 -35 -111.5t-97 -47.5q-2 2 -4 3t-4 1q-60 3 -94 44.5t-34 100.5zM893 1845q0 50 36.5 91.5t90.5 44.5q65 0 103 -40t42 -92q0 -51 -40 -93.5t-92 -42.5q-62 0 -99 40t-41 92z" />
<glyph unicode="&#xdd;" horiz-adv-x="1384" d="M-186 1469q51 4 859 0q0 -33 -85 -58q-86 0 -132 -13.5t-48 -57.5q6 -38 32 -80l332 -525l264 410q68 102 68 168q0 54 -46 76t-142 22q-88 24 -96 53q88 4 738 5q0 -12 -32 -35t-46 -23q-62 0 -149 -46.5t-186 -184.5l-340 -488v-311q0 -121 17 -188t50 -97t71.5 -33 t122.5 -7q48 -8 56 -54q0 -2 -876 0q8 32 61 54q50 0 78 -5q56 3 95.5 21.5t65.5 77t26 170.5v304l-380 588q-55 86 -98.5 130.5t-80.5 58.5t-89 14h-45q-65 29 -65 54zM449 1597q8 26 28 47l236 240q56 62 176 97q46 0 79 -40.5t33 -88.5q0 -80 -151 -144l-344 -111 q-15 -4 -22.5 -6.5t-22.5 -6.5q-6 0 -12 13z" />
<glyph unicode="&#xde;" horiz-adv-x="1347" d="M-47 -2q1 22 87 42q28 0 44 11q112 5 156 53q54 50 53 268v716q0 116 -11.5 181.5t-45.5 98.5q-25 26 -69.5 34.5t-123.5 8.5q-49 0 -71 57h812h98q0 -24 -114 -57h-37q-68 0 -112 -17.5t-64 -66.5q-27 -65 -27 -178v-49h304q164 0 283.5 -36.5t186 -116t66.5 -203.5 q0 -126 -56 -204t-147 -117t-194 -51t-223 -12q-76 4 -220 4q0 -230 56 -268q34 -22 64 -31t106 -22q52 0 103 -43q-136 -3 -904 -2zM528 420q2 0 87 -2t125 -10q154 8 228 48q128 72 128 288q0 106 -36 172t-111 97t-193 31q-102 -2 -149.5 -26t-63 -79t-15.5 -171v-348z " />
<glyph unicode="&#xdf;" horiz-adv-x="1460" d="M-10 -2q6 26 90 53q81 0 129.5 30.5t70 103t21.5 196.5q0 49 -2 75l-15 441q0 160 48 274.5t125 182.5t169 100t185 35q114 0 228 -37t187.5 -113.5t73.5 -185.5q0 -114 -98 -194.5t-270 -102.5q142 -4 245 -54t158 -141t57 -213q0 -118 -59.5 -230.5t-165 -183.5 t-231.5 -71q-88 0 -169 37.5t-131 107.5t-52 160q4 87 50 149.5t126 74.5q102 0 151 -48t49 -120q0 -63 -40 -103.5t-111 -40.5q22 45 62 139q0 34 -20 55q-19 20 -51 20q-28 0 -51.5 -23t-68.5 -131q0 -93 60 -160.5t163 -67.5q133 0 191.5 113t58.5 275q0 166 -65 290 q-66 125 -216 125q-51 0 -87.5 -16.5t-100.5 -58.5l-108 132q-2 2 -6.5 9t-6.5 8q0 10 29 10h20q53 -20 78 -58q144 4 279 100t135 251q-16 121 -87 184.5t-212 63.5q-88 0 -161.5 -48t-116.5 -140t-43 -220q1 -64 4.5 -188.5t5.5 -202.5t4 -166.5t2 -194.5q0 -108 -22 -194 t-70 -86h-336q-30 0 -82 -2z" />
<glyph unicode="&#xe0;" d="M56 172q0 106 49 178.5t137 116t201 64t261 28.5v153q0 87 -52 141.5t-136 54.5q-50 0 -97 -16.5t-75 -44t-96 -139.5q0 -50 8 -83.5t-43 -36.5q-122 14 -133 112q2 60 57 121t154 100t221 39q404 0 404 -268v-483q0 -141 88 -141q22 0 37 7t24 19.5t24 40.5q15 27 31 71 q20 0 16 -58q0 -75 -68 -128t-144 -53q-218 0 -224 205q4 16 4 43q-34 -118 -143.5 -183t-228.5 -65q-108 0 -189 57.5t-87 147.5zM218 251q2 -8 4 -23.5t4 -23.5q16 -65 63 -101.5t159 -30.5q64 2 123 39.5t96 106t37 163.5v127q-8 0 -20 1t-20 1q-100 0 -190 -28.5 t-147 -85t-109 -145.5zM320 1272q8 50 35.5 89.5t76.5 39.5q60 1 116 -61l236 -240q48 -48 68 -76q-23 -5 -56.5 10.5t-39.5 17.5l-344 116q-84 28 -92 104z" />
<glyph unicode="&#xe1;" d="M56 172q0 106 49 178.5t137 116t201 64t261 28.5v153q0 87 -52 141.5t-136 54.5q-50 0 -97 -16.5t-75 -44t-96 -139.5q0 -50 8 -83.5t-43 -36.5q-122 14 -133 112q2 60 57 121t154 100t221 39q404 0 404 -268v-483q0 -141 88 -141q22 0 37 7t24 19.5t24 40.5q15 27 31 71 q20 0 16 -58q0 -75 -68 -128t-144 -53q-218 0 -224 205q4 16 4 43q-34 -118 -143.5 -183t-228.5 -65q-108 0 -189 57.5t-87 147.5zM218 251q2 -8 4 -23.5t4 -23.5q16 -65 63 -101.5t159 -30.5q64 2 123 39.5t96 106t37 163.5v127q-8 0 -20 1t-20 1q-100 0 -190 -28.5 t-147 -85t-109 -145.5zM320 1053q8 26 28 47l236 240q56 62 176 97q46 0 79 -40.5t33 -88.5q0 -80 -151 -144l-344 -111q-15 -4 -22.5 -6.5t-22.5 -6.5q-6 0 -12 13z" />
<glyph unicode="&#xe2;" d="M56 172q0 106 49 178.5t137 116t201 64t261 28.5v153q0 87 -52 141.5t-136 54.5q-50 0 -97 -16.5t-75 -44t-96 -139.5q0 -50 8 -83.5t-43 -36.5q-122 14 -133 112q2 60 57 121t154 100t221 39q404 0 404 -268v-483q0 -141 88 -141q22 0 37 7t24 19.5t24 40.5q15 27 31 71 q20 0 16 -58q0 -75 -68 -128t-144 -53q-218 0 -224 205q4 16 4 43q-34 -118 -143.5 -183t-228.5 -65q-108 0 -189 57.5t-87 147.5zM116 1002q34 42 68 78l340 336q29 28 41 28q14 0 43 -28l344 -345q30 -31 58 -71q-54 20 -86 44l-357 208l-350 -199q-31 -19 -101 -51z M218 251q2 -8 4 -23.5t4 -23.5q16 -65 63 -101.5t159 -30.5q64 2 123 39.5t96 106t37 163.5v127q-8 0 -20 1t-20 1q-100 0 -190 -28.5t-147 -85t-109 -145.5z" />
<glyph unicode="&#xe3;" d="M56 172q0 106 49 178.5t137 116t201 64t261 28.5v153q0 87 -52 141.5t-136 54.5q-50 0 -97 -16.5t-75 -44t-96 -139.5q0 -50 8 -83.5t-43 -36.5q-122 14 -133 112q2 60 57 121t154 100t221 39q404 0 404 -268v-483q0 -141 88 -141q22 0 37 7t24 19.5t24 40.5q15 27 31 71 q20 0 16 -58q0 -75 -68 -128t-144 -53q-218 0 -224 205q4 16 4 43q-34 -118 -143.5 -183t-228.5 -65q-108 0 -189 57.5t-87 147.5zM218 251q2 -8 4 -23.5t4 -23.5q16 -65 63 -101.5t159 -30.5q64 2 123 39.5t96 106t37 163.5v127q-8 0 -20 1t-20 1q-100 0 -190 -28.5 t-147 -85t-109 -145.5zM228 1168q2 8 6.5 22.5t5.5 17.5q25 55 79.5 95.5t112.5 40.5q39 -3 84.5 -20.5t93.5 -35.5q48 -16 86 -20q68 8 105 72q9 16 19 16q16 0 16 -39q-8 -83 -79.5 -139t-156.5 -66q-30 4 -57 14t-73 31t-80 32q-32 11 -66 11q-20 0 -48 -23t-36 -28 q-6 1 -12 19z" />
<glyph unicode="&#xe4;" d="M56 172q0 106 49 178.5t137 116t201 64t261 28.5v153q0 87 -52 141.5t-136 54.5q-50 0 -97 -16.5t-75 -44t-96 -139.5q0 -50 8 -83.5t-43 -36.5q-122 14 -133 112q2 60 57 121t154 100t221 39q404 0 404 -268v-483q0 -141 88 -141q22 0 37 7t24 19.5t24 40.5q15 27 31 71 q20 0 16 -58q0 -75 -68 -128t-144 -53q-218 0 -224 205q4 16 4 43q-34 -118 -143.5 -183t-228.5 -65q-108 0 -189 57.5t-87 147.5zM204 1313q3 50 39.5 86.5t96.5 36.5q56 0 90 -32q36 -32 42 -81q0 -66 -35 -111.5t-97 -47.5q-2 2 -4 3t-4 1q-60 3 -94 44.5t-34 100.5z M218 251q2 -8 4 -23.5t4 -23.5q16 -65 63 -101.5t159 -30.5q64 2 123 39.5t96 106t37 163.5v127q-8 0 -20 1t-20 1q-100 0 -190 -28.5t-147 -85t-109 -145.5zM656 1300q0 50 36.5 91.5t90.5 44.5q65 0 103 -40t42 -92q0 -51 -40 -93.5t-92 -42.5q-62 0 -99 40t-41 92z" />
<glyph unicode="&#xe5;" d="M56 172q0 106 49 178.5t137 116t201 64t261 28.5v153q0 87 -52 141.5t-136 54.5q-50 0 -97 -16.5t-75 -44t-96 -139.5q0 -50 8 -83.5t-43 -36.5q-122 14 -133 112q2 60 57 121t154 100t221 39q404 0 404 -268v-483q0 -141 88 -141q22 0 37 7t24 19.5t24 40.5q15 27 31 71 q20 0 16 -58q0 -75 -68 -128t-144 -53q-218 0 -224 205q4 16 4 43q-34 -118 -143.5 -183t-228.5 -65q-108 0 -189 57.5t-87 147.5zM218 251q2 -8 4 -23.5t4 -23.5q16 -65 63 -101.5t159 -30.5q64 2 123 39.5t96 106t37 163.5v127q-8 0 -20 1t-20 1q-100 0 -190 -28.5 t-147 -85t-109 -145.5zM400 1280q4 8 4 16q3 61 47.5 108.5t116.5 47.5q46 0 82 -23t56 -59t21 -70q0 -68 -42 -120q-41 -52 -113 -52q-70 0 -120 45t-52 107zM471 1288q0 -34 27.5 -61t64.5 -27q44 0 68.5 26t24.5 66q0 36 -28.5 62t-68.5 26q-32 0 -58.5 -28t-29.5 -64z " />
<glyph unicode="&#xe6;" horiz-adv-x="1812" d="M88 721q0 62 60.5 116.5t158 86.5t201.5 36q86 0 167 -20.5t142.5 -64.5t90.5 -111q44 90 155 142t239 52q8 0 22 -1t20 -1q130 -10 229 -75t127 -177q6 -16 15 -51.5t17.5 -56t8.5 -76.5h-777q-2 -20 -2 -61q0 -198 109 -308.5t269 -113.5q185 6 321 131q25 20 73 84 q12 0 -46 -123q-66 -69 -186 -115.5t-250 -46.5q-147 0 -272 67q-124 68 -196 210q-29 -88 -98 -151t-159.5 -96.5t-182.5 -33.5q-122 -13 -182 42t-64 149q-6 40 -6 67q0 188 170 267.5t459 79.5h27v144q0 184 -216 196q-60 0 -111.5 -14t-83.5 -39q-33 -25 -131 -95 q3 -10 9.5 -27.5t11 -33t3 -62.5t-33.5 -41q-46 3 -77 34.5t-31 90.5zM268 219q3 -68 67.5 -114.5t148.5 -48.5q70 2 130 35t97 104t37 177v148q-156 0 -261 -28t-162 -95t-57 -178zM968 568h496q31 0 41.5 8t10.5 40v27q-3 138 -67 199t-165 61q-135 0 -219.5 -97.5 t-96.5 -237.5z" />
<glyph unicode="&#xe7;" horiz-adv-x="1020" d="M28 432q0 149 74 269.5t200 187.5t274 67q76 0 155.5 -19t138 -58t74.5 -95q6 -26 6 -42q0 -55 -38 -86.5t-93 -35.5q-48 4 -29.5 31.5t18.5 77.5q-7 177 -259 179q-97 0 -165.5 -52t-103.5 -136q-36 -86 -40 -180q9 -117 47.5 -224t116.5 -179q78 -71 196 -77 q132 0 212 38t136 98q57 64 84 112q-42 -108 -64 -164q-64 -64 -179 -122.5t-289 -58.5v-92q41 9 59 13q66 -2 99.5 -40t33.5 -84q-4 -48 -58 -84t-142 -36q-144 0 -160 48q0 10 24 15q14 -3 60 -15t62 -15t60 25t54 64q0 28 -42 52t-89 26q-25 -7 -53 -12v148 q-124 22 -209.5 86t-128 159t-42.5 211z" />
<glyph unicode="&#xe8;" d="M60 444q3 108 48.5 207.5t131.5 167.5q66 54 168 79.5t211 25.5q206 -2 333 -164q56 -89 26 -30t28 -39q58 -99 8 -223l-761 -18q25 -203 128 -294.5t311 -87.5q208 -8 352 178q38 68 52 90q12 0 0 -60q0 -8 -8 -32q-54 -89 -139 -153t-187 -96t-209 -32 q-144 0 -252 61.5t-170 163.5q-65 114 -71 256zM234 538l619 1q73 -4 73 31q22 56 -84 182q-100 116 -289 96q-120 0 -198.5 -67t-104.5 -137q2 -12 -16 -106zM320 1268q8 50 35.5 89.5t76.5 39.5q60 1 116 -61l236 -240q48 -48 68 -76q-23 -5 -56.5 10.5t-39.5 17.5 l-344 116q-84 28 -92 104z" />
<glyph unicode="&#xe9;" d="M60 444q3 108 48.5 207.5t131.5 167.5q66 54 168 79.5t211 25.5q206 -2 333 -164q56 -89 26 -30t28 -39q58 -99 8 -223l-761 -18q25 -203 128 -294.5t311 -87.5q208 -8 352 178q38 68 52 90q12 0 0 -60q0 -8 -8 -32q-54 -89 -139 -153t-187 -96t-209 -32 q-144 0 -252 61.5t-170 163.5q-65 114 -71 256zM234 538l619 1q73 -4 73 31q22 56 -84 182q-100 116 -289 96q-120 0 -198.5 -67t-104.5 -137q2 -12 -16 -106zM316 1049q8 26 28 47l236 240q56 62 176 97q46 0 79 -40.5t33 -88.5q0 -80 -151 -144l-344 -111 q-15 -4 -22.5 -6.5t-22.5 -6.5q-6 0 -12 13z" />
<glyph unicode="&#xea;" d="M60 444q3 108 48.5 207.5t131.5 167.5q66 54 168 79.5t211 25.5q206 -2 333 -164q56 -89 26 -30t28 -39q58 -99 8 -223l-761 -18q25 -203 128 -294.5t311 -87.5q208 -8 352 178q38 68 52 90q12 0 0 -60q0 -8 -8 -32q-54 -89 -139 -153t-187 -96t-209 -32 q-144 0 -252 61.5t-170 163.5q-65 114 -71 256zM116 1002q34 42 68 78l340 336q29 28 41 28q14 0 43 -28l344 -345q30 -31 58 -71q-54 20 -86 44l-357 208l-350 -199q-31 -19 -101 -51zM234 538l619 1q73 -4 73 31q22 56 -84 182q-100 116 -289 96q-120 0 -198.5 -67 t-104.5 -137q2 -12 -16 -106z" />
<glyph unicode="&#xeb;" d="M60 444q3 108 48.5 207.5t131.5 167.5q66 54 168 79.5t211 25.5q206 -2 333 -164q56 -89 26 -30t28 -39q58 -99 8 -223l-761 -18q25 -203 128 -294.5t311 -87.5q208 -8 352 178q38 68 52 90q12 0 0 -60q0 -8 -8 -32q-54 -89 -139 -153t-187 -96t-209 -32 q-144 0 -252 61.5t-170 163.5q-65 114 -71 256zM204 1313q3 50 39.5 86.5t96.5 36.5q56 0 90 -32q36 -32 42 -81q0 -66 -35 -111.5t-97 -47.5q-2 2 -4 3t-4 1q-60 3 -94 44.5t-34 100.5zM234 538l619 1q73 -4 73 31q22 56 -84 182q-100 116 -289 96q-120 0 -198.5 -67 t-104.5 -137q2 -12 -16 -106zM656 1300q0 50 36.5 91.5t90.5 44.5q65 0 103 -40t42 -92q0 -51 -40 -93.5t-92 -42.5q-62 0 -99 40t-41 92z" />
<glyph unicode="&#xec;" horiz-adv-x="692" d="M20 801q8 27 48 27q216 20 328 104q38 24 52 24q22 0 23 -84v-628q0 -112 40 -152q39 -41 101 -45q28 4 60 4q28 -1 28 -23q0 -28 -20 -28h-612q-32 0 -40 20q8 30 52 31h36q48 3 77 17t48 65t19 156v307q0 108 -37 144t-98 36h-53q-44 0 -52 25zM97 1276q8 50 35.5 89.5 t76.5 39.5q60 1 116 -61l236 -240q48 -48 68 -76q-23 -5 -56.5 10.5t-39.5 17.5l-344 116q-84 28 -92 104z" />
<glyph unicode="&#xed;" horiz-adv-x="692" d="M21 804q8 27 48 27q216 20 328 104q38 24 52 24q22 0 23 -84v-628q0 -112 40 -152q39 -41 101 -45q28 4 60 4q28 -1 28 -23q0 -28 -20 -28h-612q-32 0 -40 20q8 30 52 31h36q48 3 77 17t48 65t19 156v307q0 108 -37 144t-98 36h-53q-44 0 -52 25zM109 1057q8 26 28 47 l236 240q56 62 176 97q46 0 79 -40.5t33 -88.5q0 -80 -151 -144l-344 -111q-15 -4 -22.5 -6.5t-22.5 -6.5q-6 0 -12 13z" />
<glyph unicode="&#xee;" horiz-adv-x="692" d="M-105 1006q34 42 68 78l340 336q29 28 41 28q14 0 43 -28l344 -345q30 -31 58 -71q-54 20 -86 44l-357 208l-350 -199q-31 -19 -101 -51zM20 801q8 27 48 27q216 20 328 104q38 24 52 24q22 0 23 -84v-628q0 -112 40 -152q39 -41 101 -45q28 4 60 4q28 -1 28 -23 q0 -28 -20 -28h-612q-32 0 -40 20q8 30 52 31h36q48 3 77 17t48 65t19 156v307q0 108 -37 144t-98 36h-53q-44 0 -52 25z" />
<glyph unicode="&#xef;" horiz-adv-x="692" d="M-12 1313q3 50 39.5 86.5t96.5 36.5q56 0 90 -32q36 -32 42 -81q0 -66 -35 -111.5t-97 -47.5q-2 2 -4 3t-4 1q-60 3 -94 44.5t-34 100.5zM20 801q8 27 48 27q216 20 328 104q38 24 52 24q22 0 23 -84v-628q0 -112 40 -152q39 -41 101 -45q28 4 60 4q28 -1 28 -23 q0 -28 -20 -28h-612q-32 0 -40 20q8 30 52 31h36q48 3 77 17t48 65t19 156v307q0 108 -37 144t-98 36h-53q-44 0 -52 25zM440 1300q0 50 36.5 91.5t90.5 44.5q65 0 103 -40t42 -92q0 -51 -40 -93.5t-92 -42.5q-62 0 -99 40t-41 92z" />
<glyph unicode="&#xf0;" d="M28 1388q15 110 177 111q177 1 363 -75l120 100q26 20 100 106q20 0 -53 -198l-75 -60q92 -64 167 -159t129 -208t84.5 -234t34.5 -239q0 -184 -56.5 -300.5t-138 -173t-155 -74t-125.5 -17.5q-160 0 -284 64.5t-181 168.5t-64 242q5 12 5 24q4 132 65 243.5t166 179.5 q105 67 261 71q110 0 192 -32q-10 31 -27 79.5t-38 96.5t-55 100t-77 88l-178 -152l-125 -146q-20 7 104 253l132 117q-90 48 -264 76q-32 0 -55 -16.5t-52 -48t2 -62.5t2 -33q-54 26 -75 44q-20 16 -26 64zM293 469q0 -453 266 -457q13 4 21 4q154 6 209 132t55 336 q-7 194 -67.5 311t-217.5 117q-88 -2 -147 -58t-87.5 -154t-31.5 -231z" />
<glyph unicode="&#xf1;" horiz-adv-x="1239" d="M-30 2q6 14 52 32q34 0 54 13q62 4 98 48q35 43 35 173v332q0 106 -34.5 143t-102.5 37q-22 4 -43.5 2t-58.5 -2q12 10 42 26q194 38 316 114q70 50 82 83q2 -91 6 -83v-156q260 190 416 196q96 0 154 -58q58 -56 58 -158v-428q0 -112 13 -168.5t37 -74t80 -28t68 -12.5 q33 -21 38 -33q-308 2 -616 2q18 20 48 39q47 4 68 22.5t36 74.5q16 58 16 178v376q0 160 -111 160q-95 0 -305 -135v-461q0 -117 35 -168.5t103 -51.5q62 -34 58 -32q-113 -6 -642 -2zM312 1168q2 8 6.5 22.5t5.5 17.5q25 55 79.5 95.5t112.5 40.5q39 -3 84.5 -20.5 t93.5 -35.5q48 -16 86 -20q68 8 105 72q9 16 19 16q16 0 16 -39q-8 -83 -79.5 -139t-156.5 -66q-30 4 -57 14t-73 31t-80 32q-32 11 -66 11q-20 0 -48 -23t-36 -28q-6 1 -12 19z" />
<glyph unicode="&#xf2;" d="M102 496q6 120 67 226t148.5 169t241.5 65q114 2 219.5 -39t157.5 -123t65 -169.5t13 -165.5q0 -130 -61 -246.5t-146 -183t-244 -66.5q-183 -8 -274 74.5t-138 195.5t-49 263zM289 479q0 -210 59.5 -338.5t214.5 -128.5q101 0 162 58.5t88 164t27 253.5 q-4 126 -31 219.5t-88.5 147t-165.5 53.5q-130 -3 -194.5 -117.5t-71.5 -311.5zM320 1272q8 50 35.5 89.5t76.5 39.5q60 1 116 -61l236 -240q48 -48 68 -76q-23 -5 -56.5 10.5t-39.5 17.5l-344 116q-84 28 -92 104z" />
<glyph unicode="&#xf3;" d="M102 496q6 120 67 226t148.5 169t241.5 65q114 2 219.5 -39t157.5 -123t65 -169.5t13 -165.5q0 -130 -61 -246.5t-146 -183t-244 -66.5q-183 -8 -274 74.5t-138 195.5t-49 263zM289 479q0 -210 59.5 -338.5t214.5 -128.5q101 0 162 58.5t88 164t27 253.5 q-4 126 -31 219.5t-88.5 147t-165.5 53.5q-130 -3 -194.5 -117.5t-71.5 -311.5zM320 1053q8 26 28 47l236 240q56 62 176 97q46 0 79 -40.5t33 -88.5q0 -80 -151 -144l-344 -111q-15 -4 -22.5 -6.5t-22.5 -6.5q-6 0 -12 13z" />
<glyph unicode="&#xf4;" d="M102 496q6 120 67 226t148.5 169t241.5 65q114 2 219.5 -39t157.5 -123t65 -169.5t13 -165.5q0 -130 -61 -246.5t-146 -183t-244 -66.5q-183 -8 -274 74.5t-138 195.5t-49 263zM116 1006q34 42 68 78l340 336q29 28 41 28q14 0 43 -28l344 -345q30 -31 58 -71 q-54 20 -86 44l-357 208l-350 -199q-31 -19 -101 -51zM289 479q0 -210 59.5 -338.5t214.5 -128.5q101 0 162 58.5t88 164t27 253.5q-4 126 -31 219.5t-88.5 147t-165.5 53.5q-130 -3 -194.5 -117.5t-71.5 -311.5z" />
<glyph unicode="&#xf5;" d="M102 496q6 120 67 226t148.5 169t241.5 65q114 2 219.5 -39t157.5 -123t65 -169.5t13 -165.5q0 -130 -61 -246.5t-146 -183t-244 -66.5q-183 -8 -274 74.5t-138 195.5t-49 263zM264 1168q2 8 6.5 22.5t5.5 17.5q25 55 79.5 95.5t112.5 40.5q39 -3 84.5 -20.5t93.5 -35.5 q48 -16 86 -20q68 8 105 72q9 16 19 16q16 0 16 -39q-8 -83 -79.5 -139t-156.5 -66q-30 4 -57 14t-73 31t-80 32q-32 11 -66 11q-20 0 -48 -23t-36 -28q-6 1 -12 19zM289 479q0 -210 59.5 -338.5t214.5 -128.5q101 0 162 58.5t88 164t27 253.5q-4 126 -31 219.5t-88.5 147 t-165.5 53.5q-130 -3 -194.5 -117.5t-71.5 -311.5z" />
<glyph unicode="&#xf6;" d="M102 496q6 120 67 226t148.5 169t241.5 65q114 2 219.5 -39t157.5 -123t65 -169.5t13 -165.5q0 -130 -61 -246.5t-146 -183t-244 -66.5q-183 -8 -274 74.5t-138 195.5t-49 263zM204 1313q3 50 39.5 86.5t96.5 36.5q56 0 90 -32q36 -32 42 -81q0 -66 -35 -111.5t-97 -47.5 q-2 2 -4 3t-4 1q-60 3 -94 44.5t-34 100.5zM289 479q0 -210 59.5 -338.5t214.5 -128.5q101 0 162 58.5t88 164t27 253.5q-4 126 -31 219.5t-88.5 147t-165.5 53.5q-130 -3 -194.5 -117.5t-71.5 -311.5zM656 1300q0 50 36.5 91.5t90.5 44.5q65 0 103 -40t42 -92 q0 -51 -40 -93.5t-92 -42.5q-62 0 -99 40t-41 92z" />
<glyph unicode="&#xf8;" d="M56 516q14 118 82 220.5t178 163t243 60.5q109 0 229 -44l101 180q21 50 117 122q12 0 -42 -134l-112 -204q109 -76 166 -186t57 -238q0 -136 -66.5 -249t-181.5 -178.5t-251 -65.5q-102 0 -216 37l-61 -108q-10 -19 -17 -33q-8 -13 -98 -69q-20 0 52 134l57 109 q-117 70 -165 168q-48 99 -71 175q-3 53 -1 140zM289 452q5 -208 63 -321l396 701q-60 76 -180 76q-114 0 -174 -70t-79 -164t-26 -222zM396 64q90 -46 172 -52q120 3 193 95.5t79 264.5q0 150 -9 249t-39 151z" />
<glyph unicode="&#xf9;" horiz-adv-x="1239" d="M-81 772q125 52 229 86t149 66q61 4 89 96q-10 -899 -1 -768q0 -178 123 -184q16 4 45 4q103 24 283 137v407q0 91 -38 125.5t-106 34.5l-124 -7q92 37 216 77t203 94q-2 -6 57 67q0 -81 4 -151v-567q0 -115 20 -165.5t56 -52t176 -71.5q-430 -15 -416 0q-48 0 -48 43 v121q-100 -65 -132.5 -85.5t-89.5 -49.5t-120.5 -41t-119.5 -12q-105 0 -153.5 61t-48.5 159v363q0 90 -15 136.5t-43 63.5t-73 17zM372 1272q8 50 35.5 89.5t76.5 39.5q60 1 116 -61l236 -240q48 -48 68 -76q-23 -5 -56.5 10.5t-39.5 17.5l-344 116q-84 28 -92 104z" />
<glyph unicode="&#xfa;" horiz-adv-x="1239" d="M-81 772q125 52 229 86t149 66q61 4 89 96q-10 -899 -1 -768q0 -178 123 -184q16 4 45 4q103 24 283 137v407q0 91 -38 125.5t-106 34.5l-124 -7q92 37 216 77t203 94q-2 -6 57 67q0 -81 4 -151v-567q0 -115 20 -165.5t56 -52t176 -71.5q-430 -15 -416 0q-48 0 -48 43 v121q-100 -65 -132.5 -85.5t-89.5 -49.5t-120.5 -41t-119.5 -12q-105 0 -153.5 61t-48.5 159v363q0 90 -15 136.5t-43 63.5t-73 17zM384 1061q8 26 28 47l236 240q56 62 176 97q46 0 79 -40.5t33 -88.5q0 -80 -151 -144l-344 -111q-15 -4 -22.5 -6.5t-22.5 -6.5q-6 0 -12 13 z" />
<glyph unicode="&#xfb;" horiz-adv-x="1239" d="M-81 772q125 52 229 86t149 66q61 4 89 96q-10 -899 -1 -768q0 -178 123 -184q16 4 45 4q103 24 283 137v407q0 91 -38 125.5t-106 34.5l-124 -7q92 37 216 77t203 94q-2 -6 57 67q0 -81 4 -151v-567q0 -115 20 -165.5t56 -52t176 -71.5q-430 -15 -416 0q-48 0 -48 43 v121q-100 -65 -132.5 -85.5t-89.5 -49.5t-120.5 -41t-119.5 -12q-105 0 -153.5 61t-48.5 159v363q0 90 -15 136.5t-43 63.5t-73 17zM176 1006q34 42 68 78l340 336q29 28 41 28q14 0 43 -28l344 -345q30 -31 58 -71q-54 20 -86 44l-357 208l-350 -199q-31 -19 -101 -51z" />
<glyph unicode="&#xfc;" horiz-adv-x="1239" d="M-81 772q125 52 229 86t149 66q61 4 89 96q-10 -899 -1 -768q0 -178 123 -184q16 4 45 4q103 24 283 137v407q0 91 -38 125.5t-106 34.5l-124 -7q92 37 216 77t203 94q-2 -6 57 67q0 -81 4 -151v-567q0 -115 20 -165.5t56 -52t176 -71.5q-430 -15 -416 0q-48 0 -48 43 v121q-100 -65 -132.5 -85.5t-89.5 -49.5t-120.5 -41t-119.5 -12q-105 0 -153.5 61t-48.5 159v363q0 90 -15 136.5t-43 63.5t-73 17zM264 1313q3 50 39.5 86.5t96.5 36.5q56 0 90 -32q36 -32 42 -81q0 -66 -35 -111.5t-97 -47.5q-2 2 -4 3t-4 1q-60 3 -94 44.5t-34 100.5z M716 1300q0 50 36.5 91.5t90.5 44.5q65 0 103 -40t42 -92q0 -51 -40 -93.5t-92 -42.5q-62 0 -99 40t-41 92z" />
<glyph unicode="&#xfd;" horiz-adv-x="1020" d="M-81 922q129 -4 656 0q-50 -30 -81 -30q-70 -19 -92 -34.5t-25 -61.5q9 -58 31 -104l208 -469l132 336q54 133 53 209q0 55 -27.5 79.5t-93.5 24.5q-43 24 -51 50q122 -4 489 2q0 -20 -43 -48q-72 0 -155 -97t-144 -263l-133 -348q-32 -98 -53 -148q-20 -50 -37 -84 l-113 -225q-29 -66 -97.5 -123t-150.5 -57q-59 0 -108 31q-50 30 -56 86q-33 222 8.5 164t73.5 -120q80 -102 182 -52q92 56 124 128l88 191l-272 613q-61 138 -103 202t-62.5 76.5t-76.5 31.5q-48 24 -71 40zM268 1053q8 26 28 47l236 240q56 62 176 97q46 0 79 -40.5 t33 -88.5q0 -80 -151 -144l-344 -111q-15 -4 -22.5 -6.5t-22.5 -6.5q-6 0 -12 13z" />
<glyph unicode="&#xfe;" horiz-adv-x="1239" d="M-171 1315q0 29 167 65q88 0 171 30t136 66q49 26 79 238q16 0 3 -254v-688q44 90 125.5 137t181.5 47q142 0 252.5 -57.5t146 -159.5t45.5 -220q2 -16 2 -47q0 -131 -54 -249.5t-135 -187t-237 -68.5q-112 0 -186 39.5t-141 128.5v-303q0 -104 17.5 -156t48.5 -68 t81 -16h88q26 0 127 -46q-129 -2 -767 -2q-40 0 -126 -2q0 24 130 54h49q51 0 80.5 15.5t46 68t16.5 160.5v1284q0 88 -15.5 131t-42.5 55.5t-75 12.5h-47q-60 0 -167 -8zM385 461q0 -124 27 -223.5t90.5 -161.5t165.5 -64q12 4 20 4q129 6 196.5 144.5t67.5 343.5 q-5 112 -36.5 203t-99.5 146t-173 55q-95 -4 -152 -68t-81 -164t-25 -215z" />
<glyph unicode="&#xff;" horiz-adv-x="1020" d="M-81 922q129 -4 656 0q-50 -30 -81 -30q-70 -19 -92 -34.5t-25 -61.5q9 -58 31 -104l208 -469l132 336q54 133 53 209q0 55 -27.5 79.5t-93.5 24.5q-43 24 -51 50q122 -4 489 2q0 -20 -43 -48q-72 0 -155 -97t-144 -263l-133 -348q-32 -98 -53 -148q-20 -50 -37 -84 l-113 -225q-29 -66 -97.5 -123t-150.5 -57q-59 0 -108 31q-50 30 -56 86q-33 222 8.5 164t73.5 -120q80 -102 182 -52q92 56 124 128l88 191l-272 613q-61 138 -103 202t-62.5 76.5t-76.5 31.5q-48 24 -71 40zM152 1313q3 50 39.5 86.5t96.5 36.5q56 0 90 -32q36 -32 42 -81 q0 -66 -35 -111.5t-97 -47.5q-2 2 -4 3t-4 1q-60 3 -94 44.5t-34 100.5zM604 1300q0 50 36.5 91.5t90.5 44.5q65 0 103 -40t42 -92q0 -51 -40 -93.5t-92 -42.5q-62 0 -99 40t-41 92z" />
<glyph unicode="&#x152;" horiz-adv-x="2463" d="M51 780q7 125 55 250.5t139 231.5t229 171t314 66q80 0 177 -18.5t190 -69t153 -139.5v120q0 36 12 52.5t34 19.5q24 4 74 4h489q221 0 256 64q17 45 31 45q26 0 49 -78l151 -350q4 -12 4 -37q0 -10 -16 -16q-28 10 -51 57q-32 60 -115 119.5t-203.5 99t-258.5 39.5 q-98 0 -159 -49.5t-61 -132.5v-418h244q130 0 207 60.5t77 195.5q0 45 19 45q29 0 29 -47v-586q0 -35 -25 -35q-23 0 -23 35q-3 70 -7.5 104.5t-27 77t-78.5 71.5q-57 28 -155 28h-260v-496q0 -106 71 -155t220 -49q127 0 230 25t206 109t189 246q14 20 32 21q12 -1 12 -21 q0 -16 -4 -28l-212 -476q-36 -84 -56 -84q-14 0 -28 44q-23 62 -93.5 83t-174.5 21h-480q-16 0 -47 -2t-45 -2q-30 0 -43 13t-13 51v128q-54 -90 -142 -141t-181 -69.5t-180 -18.5h-65q-206 16 -363 129.5t-241.5 296.5t-84.5 395zM330 692q0 -210 52 -361t157.5 -232 t261.5 -83q204 0 315 87t152 245q40 158 40 396v36q-2 223 -56 372.5t-169 224.5t-295 75q-119 -2 -205.5 -58.5t-139.5 -152t-80 -216.5t-31 -253q-2 -26 -2 -80z" />
<glyph unicode="&#x153;" horiz-adv-x="1892" d="M56 492q2 115 60.5 221.5t173 174.5t273.5 68q73 0 144.5 -17t143.5 -69.5t122 -148.5q68 110 185.5 172.5t250.5 62.5q92 0 164 -32q64 -30 94 -57.5t63.5 -65.5t53.5 -41q45 -6 45 -25q1 -13 -65 -39l-693 -276q36 -154 127.5 -243t210.5 -101q238 0 375 164 q46 58 64 57q8 -1 8 -21q0 -28 -13 -44q-30 -57 -110.5 -121t-187.5 -106t-214 -42q-235 0 -367 209q-62 -81 -135 -126.5t-144 -62t-145 -16.5q-154 2 -263 71.5t-165 187.5q-56 120 -56 266zM270 426q0 -108 27 -199t86 -148t149 -63q124 0 191 49t94 143.5t39 262.5 q0 119 -25 216t-89 159t-174 62h-13q-152 -2 -213.5 -121t-69.5 -312q0 -8 -1 -24.5t-1 -24.5zM1044 559q8 -66 17 -98l451 182q58 21 57 49q0 11 -5 22l-4 11q-84 174 -239 174q-83 0 -145 -50t-96 -129t-36 -161z" />
<glyph unicode="&#x2c6;" horiz-adv-x="1100" d="M104 1006q34 42 68 78l340 336q29 28 41 28q14 0 43 -28l344 -345q30 -31 58 -71q-54 20 -86 44l-357 208l-350 -199q-31 -19 -101 -51z" />
<glyph unicode="&#x2dc;" horiz-adv-x="899" d="M148 1168q2 8 6.5 22.5t5.5 17.5q25 55 79.5 95.5t112.5 40.5q39 -3 84.5 -20.5t93.5 -35.5q48 -16 86 -20q68 8 105 72q9 16 19 16q16 0 16 -39q-8 -83 -79.5 -139t-156.5 -66q-30 4 -57 14t-73 31t-80 32q-32 11 -66 11q-20 0 -48 -23t-36 -28q-6 1 -12 19z" />
<glyph unicode="&#x2000;" horiz-adv-x="998" />
<glyph unicode="&#x2001;" horiz-adv-x="1997" />
<glyph unicode="&#x2002;" horiz-adv-x="998" />
<glyph unicode="&#x2003;" horiz-adv-x="1997" />
<glyph unicode="&#x2004;" horiz-adv-x="665" />
<glyph unicode="&#x2005;" horiz-adv-x="499" />
<glyph unicode="&#x2006;" horiz-adv-x="332" />
<glyph unicode="&#x2007;" horiz-adv-x="332" />
<glyph unicode="&#x2008;" horiz-adv-x="249" />
<glyph unicode="&#x2009;" horiz-adv-x="399" />
<glyph unicode="&#x200a;" horiz-adv-x="110" />
<glyph unicode="&#x2010;" horiz-adv-x="692" d="M24 415l164 185h488l-168 -188z" />
<glyph unicode="&#x2011;" horiz-adv-x="692" d="M24 415l164 185h488l-168 -188z" />
<glyph unicode="&#x2012;" horiz-adv-x="692" d="M24 415l164 185h488l-168 -188z" />
<glyph unicode="&#x2013;" horiz-adv-x="1024" d="M0 412l100 188h1024l-100 -188h-1024z" />
<glyph unicode="&#x2014;" horiz-adv-x="2048" d="M0 412l92 188h2044h8l-96 -188h-2044h-4z" />
<glyph unicode="&#x2018;" horiz-adv-x="620" d="M121 1134q0 86 38.5 164t93.5 132t95 69h12q26 -1 27 -27q-1 -18 -23 -28q-100 -62 -149 -260q-9 -26 19 -46q22 -22 45 -17q8 4 37 4q48 0 86 -20.5t54 -56.5q0 -68 -40 -104q-38 -37 -100 -41q-66 4 -123 54q-57 51 -68 131q-4 32 -4 46z" />
<glyph unicode="&#x2019;" horiz-adv-x="620" d="M172 1356q4 62 44 104.5t120 42.5q66 -8 113 -74.5t47 -148.5q0 -72 -32.5 -155.5t-91 -147t-128.5 -78.5q-10 7 -21 25q3 17 57 59q92 89 120 213v20q0 30 -36 31q-6 0 -15 -2t-13 -2q-24 -8 -54 -8q-50 0 -78 35.5t-32 85.5z" />
<glyph unicode="&#x201c;" d="M121 1134q0 86 38.5 164t93.5 132t95 69h12q26 -1 27 -27q-1 -18 -23 -28q-100 -62 -149 -260q1 -27 29 -31q30 3 59 15q4 0 13 2t16 2q44 0 80 -37t36 -87q0 -68 -38 -104.5t-98 -40.5q-65 4 -120 54q-56 51 -67 131q-4 32 -4 46zM633 1136q0 85 38.5 162t92.5 129 t96 68h12q26 -1 27 -27q-1 -18 -23 -28q-102 -52 -151 -256q1 -28 27 -35q22 4 59 19q4 0 13.5 2t15.5 2q49 0 84.5 -35t35.5 -89q0 -69 -40 -107.5t-101 -41.5q-64 3 -117.5 53t-64.5 132q-4 36 -4 52z" />
<glyph unicode="&#x201d;" d="M176 1360q0 69 37 106t94 37q67 0 122 -48.5t67 -131.5q4 -37 4 -51q0 -86 -39 -163t-93 -130t-96 -71q-8 0 -16 -5q-22 0 -28 29q6 26 28 36q58 28 103 108t45 144q0 32 -27 32q-18 0 -57 -13q-10 0 -31 -6q-47 3 -80 39t-33 88zM684 1360q0 68 38 103.5t93 35.5 q67 0 124 -48.5t69 -129.5q4 -37 4 -51q0 -86 -39 -163t-93 -130q-56 -53 -96 -69q-8 0 -16 -5q-22 0 -28 29q8 22 28 32q58 36 101 114q43 76 43 142q0 32 -28 32q-14 0 -52 -13q-16 0 -31 -6q-46 3 -81.5 40t-35.5 87z" />
<glyph unicode="&#x201e;" d="M205 -344q4 18 43 47q58 52 91.5 117t41.5 112v25q-1 21 -25 27q-63 -20 -33 -24q-50 0 -83.5 43t-33.5 107q10 52 48 86q38 33 108 33q76 -6 94.5 -70t18.5 -155q0 -94 -50.5 -188t-127.5 -152q-40 -28 -63.5 -25t-25.5 8t-3 9zM687 112q23 124 132 120q74 -6 119 -72.5 t45 -159.5t-48.5 -183.5t-125.5 -152.5q-45 -32 -66 -29t-22 11.5t-4 13.5q4 13 43 43q56 52 91 116.5t42 108.5q0 30 -5.5 41t-23.5 15q-8 -2 -38 -13.5t-22 -8.5q-50 0 -83.5 43t-33.5 107z" />
<glyph unicode="&#x2022;" horiz-adv-x="1140" d="M200 788q8 87 58 166.5t133 128.5t181 49q119 0 202.5 -57t127.5 -142t50 -165q0 -96 -50 -187t-138 -149t-192 -60q0 3 -2 4l-2 1q-108 4 -192 59t-130 147.5t-46 204.5z" />
<glyph unicode="&#x2026;" horiz-adv-x="2048" d="M209 104q0 44 36 86t91 42q64 0 104 -38q39 -40 39 -90q0 -57 -37 -99t-98 -42q-70 0 -102 45q-33 44 -33 96zM893 104q0 44 34.5 86t92.5 42q62 0 101 -38t43 -90q0 -56 -39 -98.5t-97 -42.5q-70 0 -102 45q-33 44 -33 96zM1573 104q0 44 34.5 84.5t92.5 43.5 q64 0 104 -38q39 -40 39 -90q0 -56 -38.5 -98.5t-96.5 -42.5q-70 0 -102 45q-33 44 -33 96z" />
<glyph unicode="&#x202f;" horiz-adv-x="399" />
<glyph unicode="&#x2039;" horiz-adv-x="415" d="M28 504q4 10 23 32l252 240q21 11 41 29q-8 -29 -20 -57l-124 -240q148 -338 127 -309t-267 272q-30 29 -32 33z" />
<glyph unicode="&#x203a;" horiz-adv-x="415" d="M84 223q2 5 8 18t8 23l128 240l-136 280q-8 16 -8 25q0 6 8 6q10 0 24 -10l252 -260q28 -27 28 -37t-19 -33l-252 -239q-10 -10 -33 -21z" />
<glyph unicode="&#x205f;" horiz-adv-x="499" />
<glyph unicode="&#x2122;" horiz-adv-x="1968" d="M76 1276v192h672v-196h-48q0 69 -18 100t-55 39.5t-113 8.5h-43v-632q0 -38 6.5 -56.5t21 -25.5t37 -7.5t60.5 -2.5v-40h-381v40q61 0 87 6t34 24t8 62v632h-68q-96 0 -123.5 -32t-27.5 -112h-49zM872 656v40q20 0 27 -4q37 4 53 18t16 58v592q0 42 -11.5 55t-63.5 13v40 h247l261 -584l247 584h248v-44q-54 0 -71 -4t-21 -18t-4 -58v-556q0 -50 18 -69t78 -23v-40h-332v40q64 3 82 17q19 13 19 71v612l-305 -740h-16l-304 736v-616q0 -44 10.5 -59.5t33.5 -16.5q22 -2 56 -4v-40h-268z" />
<glyph unicode="&#x25fc;" horiz-adv-x="922" d="M0 0v922h922v-922h-922z" />
</font>
</defs>
</svg>
